<svg xmlns="http://www.w3.org/2000/svg" xmlns:xlink="http://www.w3.org/1999/xlink" width="400" zoomAndPan="magnify" viewBox="0 0 300 52.499999" height="70" preserveAspectRatio="xMidYMid meet" version="1.0"><defs><g/><clipPath id="e68eb4663d"><rect x="0" width="294" y="0" height="45"/></clipPath></defs><g transform="matrix(1, 0, 0, 1, 3, 2)"><g clip-path="url(#e68eb4663d)"><g fill="#004aad" fill-opacity="0.749"><g transform="translate(2.604133, 37.386324)"><g><path d="M 17.421875 -24.34375 C 20.242188 -24.34375 22.367188 -23.816406 23.796875 -22.765625 C 25.222656 -21.722656 25.9375 -20.207031 25.9375 -18.21875 C 25.9375 -17.125 25.632812 -16.140625 25.03125 -15.265625 C 24.425781 -14.398438 23.546875 -13.738281 22.390625 -13.28125 C 23.242188 -13 24.035156 -12.601562 24.765625 -12.09375 C 25.492188 -11.582031 26.082031 -10.921875 26.53125 -10.109375 C 26.988281 -9.304688 27.21875 -8.320312 27.21875 -7.15625 C 27.21875 -5.75 26.945312 -4.582031 26.40625 -3.65625 C 25.863281 -2.726562 25.148438 -1.992188 24.265625 -1.453125 C 23.390625 -0.921875 22.414062 -0.546875 21.34375 -0.328125 C 20.28125 -0.109375 19.210938 0 18.140625 0 L 5.28125 0 L 5.28125 -24.34375 Z M 17.390625 -20.71875 L 9.046875 -20.71875 L 9.046875 -14.390625 L 17.796875 -14.390625 C 18.929688 -14.410156 19.929688 -14.691406 20.796875 -15.234375 C 21.671875 -15.785156 22.109375 -16.570312 22.109375 -17.59375 C 22.109375 -18.726562 21.648438 -19.53125 20.734375 -20 C 19.816406 -20.476562 18.703125 -20.71875 17.390625 -20.71875 Z M 17.96875 -10.75 L 9.046875 -10.75 L 9.046875 -3.609375 L 18.140625 -3.609375 C 19.671875 -3.609375 20.925781 -3.90625 21.90625 -4.5 C 22.894531 -5.09375 23.390625 -6.003906 23.390625 -7.234375 C 23.390625 -8.140625 23.113281 -8.84375 22.5625 -9.34375 C 22.007812 -9.851562 21.3125 -10.210938 20.46875 -10.421875 C 19.632812 -10.640625 18.800781 -10.75 17.96875 -10.75 Z M 17.96875 -10.75 "/></g></g></g><g fill="#004aad" fill-opacity="0.749"><g transform="translate(33.254388, 37.386324)"><g><path d="M 24.375 0 L 21.765625 -5.84375 L 8.90625 -5.84375 L 6.265625 0 L 2.359375 0 L 13.34375 -24.34375 L 17.5625 -24.34375 L 28.46875 0 Z M 13.453125 -15.859375 L 10.53125 -9.453125 L 20.125 -9.453125 L 17.140625 -16 C 16.835938 -16.738281 16.535156 -17.46875 16.234375 -18.1875 C 15.929688 -18.90625 15.628906 -19.671875 15.328125 -20.484375 C 15.003906 -19.640625 14.691406 -18.84375 14.390625 -18.09375 C 14.085938 -17.34375 13.773438 -16.597656 13.453125 -15.859375 Z M 13.453125 -15.859375 "/></g></g></g><g fill="#004aad" fill-opacity="0.749"><g transform="translate(64.078403, 37.386324)"><g><path d="M 26.796875 -3.40625 C 26.203125 -2.851562 25.394531 -2.285156 24.375 -1.703125 C 23.351562 -1.117188 22.175781 -0.628906 20.84375 -0.234375 C 19.507812 0.148438 18.101562 0.34375 16.625 0.34375 C 14.769531 0.34375 13.039062 0.0507812 11.4375 -0.53125 C 9.84375 -1.125 8.445312 -1.960938 7.25 -3.046875 C 6.050781 -4.140625 5.113281 -5.457031 4.4375 -7 C 3.769531 -8.539062 3.4375 -10.265625 3.4375 -12.171875 C 3.4375 -13.953125 3.789062 -15.59375 4.5 -17.09375 C 5.207031 -18.601562 6.175781 -19.914062 7.40625 -21.03125 C 8.632812 -22.144531 10.046875 -23.007812 11.640625 -23.625 C 13.242188 -24.238281 14.9375 -24.546875 16.71875 -24.546875 C 18.207031 -24.546875 19.617188 -24.34375 20.953125 -23.9375 C 22.285156 -23.53125 23.476562 -23.015625 24.53125 -22.390625 C 25.582031 -21.765625 26.429688 -21.113281 27.078125 -20.4375 L 24.75 -17.453125 C 23.632812 -18.421875 22.398438 -19.222656 21.046875 -19.859375 C 19.691406 -20.503906 18.179688 -20.828125 16.515625 -20.828125 C 15.328125 -20.828125 14.179688 -20.628906 13.078125 -20.234375 C 11.984375 -19.835938 11 -19.265625 10.125 -18.515625 C 9.257812 -17.765625 8.566406 -16.851562 8.046875 -15.78125 C 7.523438 -14.71875 7.265625 -13.515625 7.265625 -12.171875 C 7.265625 -10.222656 7.722656 -8.59375 8.640625 -7.28125 C 9.554688 -5.96875 10.753906 -4.984375 12.234375 -4.328125 C 13.722656 -3.671875 15.320312 -3.34375 17.03125 -3.34375 C 18.238281 -3.34375 19.328125 -3.503906 20.296875 -3.828125 C 21.273438 -4.148438 22.144531 -4.550781 22.90625 -5.03125 C 23.675781 -5.519531 24.363281 -6.007812 24.96875 -6.5 Z M 26.796875 -3.40625 "/></g></g></g><g fill="#004aad" fill-opacity="0.749"><g transform="translate(94.381153, 37.386324)"><g><path d="M 24.375 0 L 21.765625 -5.84375 L 8.90625 -5.84375 L 6.265625 0 L 2.359375 0 L 13.34375 -24.34375 L 17.5625 -24.34375 L 28.46875 0 Z M 13.453125 -15.859375 L 10.53125 -9.453125 L 20.125 -9.453125 L 17.140625 -16 C 16.835938 -16.738281 16.535156 -17.46875 16.234375 -18.1875 C 15.929688 -18.90625 15.628906 -19.671875 15.328125 -20.484375 C 15.003906 -19.640625 14.691406 -18.84375 14.390625 -18.09375 C 14.085938 -17.34375 13.773438 -16.597656 13.453125 -15.859375 Z M 13.453125 -15.859375 "/></g></g></g><g fill="#004aad" fill-opacity="0.749"><g transform="translate(125.205167, 37.386324)"><g/></g></g><g fill="#004aad" fill-opacity="0.749"><g transform="translate(139.487764, 37.386324)"><g><path d="M 25.828125 -24.34375 L 29.578125 -24.34375 L 29.578125 0 L 25.9375 0 L 8.40625 -18.953125 C 8.550781 -17.460938 8.691406 -15.988281 8.828125 -14.53125 C 8.972656 -13.070312 9.046875 -11.597656 9.046875 -10.109375 L 9.046875 0 L 5.28125 0 L 5.28125 -24.34375 L 8.859375 -24.34375 L 26.421875 -4.90625 C 26.253906 -6.0625 26.128906 -7.289062 26.046875 -8.59375 C 25.972656 -9.90625 25.914062 -11.226562 25.875 -12.5625 C 25.84375 -13.894531 25.828125 -15.15625 25.828125 -16.34375 Z M 25.828125 -24.34375 "/></g></g></g><g fill="#004aad" fill-opacity="0.749"><g transform="translate(174.342873, 37.386324)"><g><path d="M 30.875 -12.171875 C 30.875 -10.410156 30.535156 -8.769531 29.859375 -7.25 C 29.191406 -5.726562 28.242188 -4.398438 27.015625 -3.265625 C 25.785156 -2.128906 24.335938 -1.242188 22.671875 -0.609375 C 21.003906 0.0234375 19.160156 0.34375 17.140625 0.34375 C 15.148438 0.34375 13.3125 0.0234375 11.625 -0.609375 C 9.945312 -1.242188 8.5 -2.128906 7.28125 -3.265625 C 6.0625 -4.398438 5.113281 -5.726562 4.4375 -7.25 C 3.769531 -8.769531 3.4375 -10.410156 3.4375 -12.171875 C 3.4375 -13.929688 3.769531 -15.566406 4.4375 -17.078125 C 5.113281 -18.597656 6.0625 -19.925781 7.28125 -21.0625 C 8.5 -22.195312 9.945312 -23.082031 11.625 -23.71875 C 13.3125 -24.363281 15.148438 -24.6875 17.140625 -24.6875 C 19.160156 -24.6875 21.003906 -24.363281 22.671875 -23.71875 C 24.335938 -23.082031 25.785156 -22.195312 27.015625 -21.0625 C 28.242188 -19.925781 29.191406 -18.597656 29.859375 -17.078125 C 30.535156 -15.566406 30.875 -13.929688 30.875 -12.171875 Z M 27.046875 -12.171875 C 27.046875 -13.859375 26.625 -15.367188 25.78125 -16.703125 C 24.9375 -18.035156 23.765625 -19.085938 22.265625 -19.859375 C 20.773438 -20.640625 19.066406 -21.03125 17.140625 -21.03125 C 15.191406 -21.03125 13.472656 -20.640625 11.984375 -19.859375 C 10.503906 -19.085938 9.347656 -18.035156 8.515625 -16.703125 C 7.679688 -15.367188 7.265625 -13.859375 7.265625 -12.171875 C 7.265625 -10.472656 7.679688 -8.957031 8.515625 -7.625 C 9.347656 -6.289062 10.503906 -5.234375 11.984375 -4.453125 C 13.472656 -3.679688 15.191406 -3.296875 17.140625 -3.296875 C 19.066406 -3.296875 20.773438 -3.679688 22.265625 -4.453125 C 23.765625 -5.234375 24.9375 -6.296875 25.78125 -7.640625 C 26.625 -8.992188 27.046875 -10.503906 27.046875 -12.171875 Z M 27.046875 -12.171875 "/></g></g></g><g fill="#004aad" fill-opacity="0.749"><g transform="translate(208.641963, 37.386324)"><g><path d="M 27.78125 -24.34375 L 17.25 0 L 13.03125 0 L 2.359375 -24.34375 L 6.609375 -24.34375 L 12.859375 -9.734375 C 13.234375 -8.847656 13.640625 -7.90625 14.078125 -6.90625 C 14.515625 -5.914062 14.921875 -4.945312 15.296875 -4 C 15.640625 -4.945312 16.019531 -5.910156 16.4375 -6.890625 C 16.851562 -7.878906 17.238281 -8.816406 17.59375 -9.703125 L 23.390625 -24.34375 Z M 27.78125 -24.34375 "/></g></g></g><g fill="#004aad" fill-opacity="0.749"><g transform="translate(238.77094, 37.386324)"><g><path d="M 5.28125 -24.34375 L 23.703125 -24.34375 L 23.703125 -20.71875 L 9.046875 -20.71875 L 9.046875 -14.28125 L 21.796875 -14.28125 L 21.796875 -10.671875 L 9.046875 -10.671875 L 9.046875 -3.609375 L 23.703125 -3.609375 L 23.703125 0 L 5.28125 0 Z M 5.28125 -24.34375 "/></g></g></g><g fill="#004aad" fill-opacity="0.749"><g transform="translate(266.988639, 37.386324)"><g><path d="M 23.53125 -3.609375 L 23.53125 0 L 5.28125 0 L 5.28125 -24.34375 L 9.046875 -24.34375 L 9.046875 -3.609375 Z M 23.53125 -3.609375 "/></g></g></g><g fill="#38b6ff" fill-opacity="1"><g transform="translate(1.067732, 35.849923)"><g><path d="M 17.421875 -24.34375 C 20.242188 -24.34375 22.367188 -23.816406 23.796875 -22.765625 C 25.222656 -21.722656 25.9375 -20.207031 25.9375 -18.21875 C 25.9375 -17.125 25.632812 -16.140625 25.03125 -15.265625 C 24.425781 -14.398438 23.546875 -13.738281 22.390625 -13.28125 C 23.242188 -13 24.035156 -12.601562 24.765625 -12.09375 C 25.492188 -11.582031 26.082031 -10.921875 26.53125 -10.109375 C 26.988281 -9.304688 27.21875 -8.320312 27.21875 -7.15625 C 27.21875 -5.75 26.945312 -4.582031 26.40625 -3.65625 C 25.863281 -2.726562 25.148438 -1.992188 24.265625 -1.453125 C 23.390625 -0.921875 22.414062 -0.546875 21.34375 -0.328125 C 20.28125 -0.109375 19.210938 0 18.140625 0 L 5.28125 0 L 5.28125 -24.34375 Z M 17.390625 -20.71875 L 9.046875 -20.71875 L 9.046875 -14.390625 L 17.796875 -14.390625 C 18.929688 -14.410156 19.929688 -14.691406 20.796875 -15.234375 C 21.671875 -15.785156 22.109375 -16.570312 22.109375 -17.59375 C 22.109375 -18.726562 21.648438 -19.53125 20.734375 -20 C 19.816406 -20.476562 18.703125 -20.71875 17.390625 -20.71875 Z M 17.96875 -10.75 L 9.046875 -10.75 L 9.046875 -3.609375 L 18.140625 -3.609375 C 19.671875 -3.609375 20.925781 -3.90625 21.90625 -4.5 C 22.894531 -5.09375 23.390625 -6.003906 23.390625 -7.234375 C 23.390625 -8.140625 23.113281 -8.84375 22.5625 -9.34375 C 22.007812 -9.851562 21.3125 -10.210938 20.46875 -10.421875 C 19.632812 -10.640625 18.800781 -10.75 17.96875 -10.75 Z M 17.96875 -10.75 "/></g></g></g><g fill="#38b6ff" fill-opacity="1"><g transform="translate(31.717987, 35.849923)"><g><path d="M 24.375 0 L 21.765625 -5.84375 L 8.90625 -5.84375 L 6.265625 0 L 2.359375 0 L 13.34375 -24.34375 L 17.5625 -24.34375 L 28.46875 0 Z M 13.453125 -15.859375 L 10.53125 -9.453125 L 20.125 -9.453125 L 17.140625 -16 C 16.835938 -16.738281 16.535156 -17.46875 16.234375 -18.1875 C 15.929688 -18.90625 15.628906 -19.671875 15.328125 -20.484375 C 15.003906 -19.640625 14.691406 -18.84375 14.390625 -18.09375 C 14.085938 -17.34375 13.773438 -16.597656 13.453125 -15.859375 Z M 13.453125 -15.859375 "/></g></g></g><g fill="#38b6ff" fill-opacity="1"><g transform="translate(62.542002, 35.849923)"><g><path d="M 26.796875 -3.40625 C 26.203125 -2.851562 25.394531 -2.285156 24.375 -1.703125 C 23.351562 -1.117188 22.175781 -0.628906 20.84375 -0.234375 C 19.507812 0.148438 18.101562 0.34375 16.625 0.34375 C 14.769531 0.34375 13.039062 0.0507812 11.4375 -0.53125 C 9.84375 -1.125 8.445312 -1.960938 7.25 -3.046875 C 6.050781 -4.140625 5.113281 -5.457031 4.4375 -7 C 3.769531 -8.539062 3.4375 -10.265625 3.4375 -12.171875 C 3.4375 -13.953125 3.789062 -15.59375 4.5 -17.09375 C 5.207031 -18.601562 6.175781 -19.914062 7.40625 -21.03125 C 8.632812 -22.144531 10.046875 -23.007812 11.640625 -23.625 C 13.242188 -24.238281 14.9375 -24.546875 16.71875 -24.546875 C 18.207031 -24.546875 19.617188 -24.34375 20.953125 -23.9375 C 22.285156 -23.53125 23.476562 -23.015625 24.53125 -22.390625 C 25.582031 -21.765625 26.429688 -21.113281 27.078125 -20.4375 L 24.75 -17.453125 C 23.632812 -18.421875 22.398438 -19.222656 21.046875 -19.859375 C 19.691406 -20.503906 18.179688 -20.828125 16.515625 -20.828125 C 15.328125 -20.828125 14.179688 -20.628906 13.078125 -20.234375 C 11.984375 -19.835938 11 -19.265625 10.125 -18.515625 C 9.257812 -17.765625 8.566406 -16.851562 8.046875 -15.78125 C 7.523438 -14.71875 7.265625 -13.515625 7.265625 -12.171875 C 7.265625 -10.222656 7.722656 -8.59375 8.640625 -7.28125 C 9.554688 -5.96875 10.753906 -4.984375 12.234375 -4.328125 C 13.722656 -3.671875 15.320312 -3.34375 17.03125 -3.34375 C 18.238281 -3.34375 19.328125 -3.503906 20.296875 -3.828125 C 21.273438 -4.148438 22.144531 -4.550781 22.90625 -5.03125 C 23.675781 -5.519531 24.363281 -6.007812 24.96875 -6.5 Z M 26.796875 -3.40625 "/></g></g></g><g fill="#38b6ff" fill-opacity="1"><g transform="translate(92.844752, 35.849923)"><g><path d="M 24.375 0 L 21.765625 -5.84375 L 8.90625 -5.84375 L 6.265625 0 L 2.359375 0 L 13.34375 -24.34375 L 17.5625 -24.34375 L 28.46875 0 Z M 13.453125 -15.859375 L 10.53125 -9.453125 L 20.125 -9.453125 L 17.140625 -16 C 16.835938 -16.738281 16.535156 -17.46875 16.234375 -18.1875 C 15.929688 -18.90625 15.628906 -19.671875 15.328125 -20.484375 C 15.003906 -19.640625 14.691406 -18.84375 14.390625 -18.09375 C 14.085938 -17.34375 13.773438 -16.597656 13.453125 -15.859375 Z M 13.453125 -15.859375 "/></g></g></g><g fill="#38b6ff" fill-opacity="1"><g transform="translate(123.668766, 35.849923)"><g/></g></g><g fill="#38b6ff" fill-opacity="1"><g transform="translate(137.951363, 35.849923)"><g><path d="M 25.828125 -24.34375 L 29.578125 -24.34375 L 29.578125 0 L 25.9375 0 L 8.40625 -18.953125 C 8.550781 -17.460938 8.691406 -15.988281 8.828125 -14.53125 C 8.972656 -13.070312 9.046875 -11.597656 9.046875 -10.109375 L 9.046875 0 L 5.28125 0 L 5.28125 -24.34375 L 8.859375 -24.34375 L 26.421875 -4.90625 C 26.253906 -6.0625 26.128906 -7.289062 26.046875 -8.59375 C 25.972656 -9.90625 25.914062 -11.226562 25.875 -12.5625 C 25.84375 -13.894531 25.828125 -15.15625 25.828125 -16.34375 Z M 25.828125 -24.34375 "/></g></g></g><g fill="#38b6ff" fill-opacity="1"><g transform="translate(172.806472, 35.849923)"><g><path d="M 30.875 -12.171875 C 30.875 -10.410156 30.535156 -8.769531 29.859375 -7.25 C 29.191406 -5.726562 28.242188 -4.398438 27.015625 -3.265625 C 25.785156 -2.128906 24.335938 -1.242188 22.671875 -0.609375 C 21.003906 0.0234375 19.160156 0.34375 17.140625 0.34375 C 15.148438 0.34375 13.3125 0.0234375 11.625 -0.609375 C 9.945312 -1.242188 8.5 -2.128906 7.28125 -3.265625 C 6.0625 -4.398438 5.113281 -5.726562 4.4375 -7.25 C 3.769531 -8.769531 3.4375 -10.410156 3.4375 -12.171875 C 3.4375 -13.929688 3.769531 -15.566406 4.4375 -17.078125 C 5.113281 -18.597656 6.0625 -19.925781 7.28125 -21.0625 C 8.5 -22.195312 9.945312 -23.082031 11.625 -23.71875 C 13.3125 -24.363281 15.148438 -24.6875 17.140625 -24.6875 C 19.160156 -24.6875 21.003906 -24.363281 22.671875 -23.71875 C 24.335938 -23.082031 25.785156 -22.195312 27.015625 -21.0625 C 28.242188 -19.925781 29.191406 -18.597656 29.859375 -17.078125 C 30.535156 -15.566406 30.875 -13.929688 30.875 -12.171875 Z M 27.046875 -12.171875 C 27.046875 -13.859375 26.625 -15.367188 25.78125 -16.703125 C 24.9375 -18.035156 23.765625 -19.085938 22.265625 -19.859375 C 20.773438 -20.640625 19.066406 -21.03125 17.140625 -21.03125 C 15.191406 -21.03125 13.472656 -20.640625 11.984375 -19.859375 C 10.503906 -19.085938 9.347656 -18.035156 8.515625 -16.703125 C 7.679688 -15.367188 7.265625 -13.859375 7.265625 -12.171875 C 7.265625 -10.472656 7.679688 -8.957031 8.515625 -7.625 C 9.347656 -6.289062 10.503906 -5.234375 11.984375 -4.453125 C 13.472656 -3.679688 15.191406 -3.296875 17.140625 -3.296875 C 19.066406 -3.296875 20.773438 -3.679688 22.265625 -4.453125 C 23.765625 -5.234375 24.9375 -6.296875 25.78125 -7.640625 C 26.625 -8.992188 27.046875 -10.503906 27.046875 -12.171875 Z M 27.046875 -12.171875 "/></g></g></g><g fill="#38b6ff" fill-opacity="1"><g transform="translate(207.105562, 35.849923)"><g><path d="M 27.78125 -24.34375 L 17.25 0 L 13.03125 0 L 2.359375 -24.34375 L 6.609375 -24.34375 L 12.859375 -9.734375 C 13.234375 -8.847656 13.640625 -7.90625 14.078125 -6.90625 C 14.515625 -5.914062 14.921875 -4.945312 15.296875 -4 C 15.640625 -4.945312 16.019531 -5.910156 16.4375 -6.890625 C 16.851562 -7.878906 17.238281 -8.816406 17.59375 -9.703125 L 23.390625 -24.34375 Z M 27.78125 -24.34375 "/></g></g></g><g fill="#38b6ff" fill-opacity="1"><g transform="translate(237.234539, 35.849923)"><g><path d="M 5.28125 -24.34375 L 23.703125 -24.34375 L 23.703125 -20.71875 L 9.046875 -20.71875 L 9.046875 -14.28125 L 21.796875 -14.28125 L 21.796875 -10.671875 L 9.046875 -10.671875 L 9.046875 -3.609375 L 23.703125 -3.609375 L 23.703125 0 L 5.28125 0 Z M 5.28125 -24.34375 "/></g></g></g><g fill="#38b6ff" fill-opacity="1"><g transform="translate(265.452238, 35.849923)"><g><path d="M 23.53125 -3.609375 L 23.53125 0 L 5.28125 0 L 5.28125 -24.34375 L 9.046875 -24.34375 L 9.046875 -3.609375 Z M 23.53125 -3.609375 "/></g></g></g></g></g></svg>