<svg xmlns="http://www.w3.org/2000/svg" xmlns:xlink="http://www.w3.org/1999/xlink" width="400" zoomAndPan="magnify" viewBox="0 0 300 52.499999" height="70" preserveAspectRatio="xMidYMid meet" version="1.0"><defs><filter x="0%" y="0%" width="100%" height="100%" id="1aeedde9fe"><feColorMatrix values="0 0 0 0 1 0 0 0 0 1 0 0 0 0 1 0 0 0 1 0" color-interpolation-filters="sRGB"/></filter><g/><clipPath id="de1bcea834"><path d="M 21 26 L 280 26 L 280 52.003906 L 21 52.003906 Z M 21 26 " clip-rule="nonzero"/></clipPath><mask id="41a55dee54"><g filter="url(#1aeedde9fe)"><rect x="-30" width="360" fill="#000000" y="-5.25" height="62.999998" fill-opacity="0.3"/></g></mask><clipPath id="f6874f32df"><path d="M 0.148438 1.308594 L 257.769531 1.308594 L 257.769531 26.003906 L 0.148438 26.003906 Z M 0.148438 1.308594 " clip-rule="nonzero"/></clipPath><clipPath id="28c031f89e"><path d="M 0.148438 1.308594 L 257.769531 1.308594 L 257.769531 26 L 0.148438 26 Z M 0.148438 1.308594 " clip-rule="nonzero"/></clipPath><clipPath id="4570659767"><path d="M 107.035156 13.867188 L 107.035156 2.652344 L 111.386719 2.636719 L 111.734375 9.207031 L 111.75 9.679688 C 111.75 9.679688 112.5625 9.109375 112.675781 9.113281 C 113.238281 9.128906 117.210938 11.722656 117.210938 11.722656 L 121.742188 15.101562 L 118.886719 18.871094 L 115.542969 16.121094 C 115.542969 16.121094 111.417969 13.648438 111.320312 13.570312 L 111.320312 25.085938 L 107.035156 25.085938 Z M 86.203125 15.949219 C 86.203125 15.949219 86.191406 11.5625 86.230469 11.5625 L 102.742188 11.5625 L 102.742188 15.792969 Z M 132.429688 13.820312 C 132.429688 14.21875 132.351562 14.597656 132.195312 14.964844 C 132.042969 15.328125 131.820312 15.652344 131.535156 15.933594 C 131.25 16.210938 130.921875 16.429688 130.546875 16.578125 C 130.171875 16.730469 129.785156 16.808594 129.378906 16.808594 C 128.976562 16.808594 128.585938 16.730469 128.214844 16.578125 C 127.839844 16.429688 127.511719 16.210938 127.226562 15.933594 C 126.941406 15.652344 126.71875 15.328125 126.566406 14.964844 C 126.410156 14.597656 126.332031 14.21875 126.332031 13.820312 C 126.332031 13.425781 126.410156 13.042969 126.566406 12.679688 C 126.71875 12.3125 126.941406 11.988281 127.226562 11.710938 C 127.511719 11.429688 127.839844 11.214844 128.214844 11.0625 C 128.585938 10.910156 128.976562 10.835938 129.378906 10.835938 C 129.785156 10.835938 130.171875 10.910156 130.546875 11.0625 C 130.921875 11.214844 131.25 11.429688 131.535156 11.710938 C 131.820312 11.988281 132.042969 12.3125 132.195312 12.679688 C 132.351562 13.042969 132.429688 13.425781 132.429688 13.820312 Z M 45.335938 13.867188 L 45.335938 2.652344 L 49.683594 2.636719 L 50.03125 9.207031 L 50.046875 9.679688 C 50.046875 9.679688 50.863281 9.109375 50.972656 9.113281 C 51.535156 9.128906 55.511719 11.722656 55.511719 11.722656 L 60.042969 15.101562 L 57.183594 18.871094 L 53.839844 16.121094 C 53.839844 16.121094 49.71875 13.648438 49.617188 13.570312 L 49.617188 25.085938 L 45.335938 25.085938 Z M 66.558594 22.324219 C 67.488281 21.949219 66.566406 22.480469 68.742188 20.675781 C 70.914062 18.871094 72.496094 16.542969 72.875 13.089844 L 73.335938 8.867188 L 77.144531 8.90625 C 77.144531 8.90625 76.960938 11.804688 76.914062 13.050781 C 76.773438 16.929688 75.472656 19.855469 72.476562 22.738281 C 71.03125 24.132812 69.960938 24.722656 69.960938 24.722656 C 69.980469 24.824219 66.558594 22.324219 66.558594 22.324219 Z M 78.734375 14.828125 L 77.28125 13.589844 L 79.039062 11.972656 C 79.707031 11.355469 80.5 10.089844 80.964844 9.320312 L 81.808594 7.921875 L 64.898438 7.570312 L 64.710938 3.898438 L 74.664062 3.898438 C 83.992188 3.898438 84.417969 3.324219 85.574219 3.980469 L 88.320312 6.304688 L 86.664062 8.195312 C 85.917969 9.050781 83.101562 12.738281 81.863281 14.265625 L 80.242188 15.902344 Z M 147.921875 23.796875 C 147.847656 23.570312 147.617188 22.878906 147.40625 22.261719 C 147.195312 21.644531 147.019531 21.085938 147.019531 21.023438 C 147.019531 20.957031 147.878906 21.160156 149.421875 20.992188 L 150.445312 20.878906 L 151.371094 13.828125 L 148.285156 16.761719 C 146.589844 18.371094 144.117188 20.410156 142.789062 21.292969 L 140.378906 22.890625 L 138.96875 21.445312 C 138.195312 20.652344 137.738281 19.945312 137.953125 19.878906 C 139.296875 19.457031 143.195312 16.601562 145.90625 14.046875 L 149.078125 11.058594 L 139.03125 10.875 L 139.03125 7.589844 L 150.304688 7.589844 L 150.304688 1.96875 L 154.3125 2.003906 C 154.3125 2.003906 154.292969 7.394531 154.28125 7.589844 L 160.03125 7.589844 L 159.816406 10.726562 L 155.25 10.914062 L 155.25 17.132812 C 155.25 24.253906 155.019531 24.105469 153.273438 24.789062 C 151.765625 25.378906 148.726562 25.582031 148.539062 25.003906 Z M 192.402344 24.101562 L 191.1875 22.628906 L 195.214844 20.78125 C 197.671875 19.65625 200.394531 18.328125 202.175781 14.890625 C 202.644531 13.988281 203.179688 12.886719 203.179688 12.792969 C 203.179688 12.695312 199.90625 12.726562 194.515625 12.726562 L 186.820312 12.726562 L 186.828125 8.769531 L 195.84375 8.765625 C 206.085938 8.761719 204.882812 8.609375 205.683594 9.214844 C 205.683594 9.214844 207.097656 10.824219 207.488281 11.371094 C 207.488281 11.371094 206.945312 12.46875 206.679688 13.230469 C 204.589844 19.140625 204.066406 19.917969 198.007812 24.179688 C 196.765625 25.050781 194.144531 25.726562 194.144531 25.726562 Z M 220.984375 18.042969 L 220.863281 13.183594 L 219.230469 14.097656 C 216.453125 15.652344 214.390625 16.9375 214.390625 16.9375 L 210.960938 13.265625 C 210.960938 13.265625 213.894531 12.433594 215.59375 11.433594 C 221.417969 8 221.707031 8.140625 226.265625 3.65625 L 228.652344 1.3125 L 232.503906 4.519531 C 232.503906 4.519531 231.820312 5.613281 231.09375 6.226562 C 225.609375 10.871094 226.355469 10.285156 226.355469 10.285156 C 225.9375 13.3125 225.988281 14.582031 225.988281 17.234375 L 225.949219 25.125 L 220.945312 25.125 Z M 233.628906 20.117188 L 235.988281 19.34375 C 242.144531 17.328125 243.953125 17.257812 248.320312 12.589844 C 250.949219 9.78125 253.109375 6.15625 253.082031 6.097656 C 253.082031 6.097656 254.144531 6.808594 255.550781 7.734375 L 257.292969 9.164062 L 255.105469 12.453125 C 253.128906 15.429688 251.414062 18.699219 242.320312 22.417969 C 240.34375 23.226562 236.878906 24.632812 236.878906 24.632812 C 235.097656 22.003906 236.476562 24.214844 233.628906 20.117188 Z M 233.335938 6.246094 L 236.585938 2.550781 C 238.25 3.480469 243.902344 6.941406 243.902344 6.941406 C 243.902344 6.941406 240.597656 10.742188 240.46875 10.582031 C 240.523438 10.578125 233.335938 6.246094 233.335938 6.246094 Z M 160.972656 20.117188 L 163.328125 19.34375 C 169.484375 17.328125 171.296875 17.257812 175.664062 12.589844 C 178.289062 9.78125 180.453125 6.15625 180.425781 6.097656 C 180.425781 6.097656 181.484375 6.808594 182.890625 7.734375 L 184.632812 9.164062 L 182.449219 12.453125 C 180.472656 15.429688 178.753906 18.699219 169.660156 22.417969 C 167.683594 23.226562 164.222656 24.632812 164.222656 24.632812 C 162.4375 22.003906 163.816406 24.214844 160.972656 20.117188 Z M 160.679688 6.246094 L 163.925781 2.550781 C 165.589844 3.480469 171.242188 6.941406 171.242188 6.941406 C 171.242188 6.941406 167.9375 10.742188 167.808594 10.582031 C 167.863281 10.578125 160.679688 6.246094 160.679688 6.246094 Z M 5.253906 21.210938 C 10.480469 17.480469 14.464844 14.519531 16.65625 10.167969 C 17.761719 7.863281 17.441406 3.191406 17.441406 3.191406 L 23.003906 3.414062 C 23.003906 3.414062 22.652344 14.015625 18.355469 18.117188 C 15.457031 20.886719 8.71875 25.183594 8.71875 25.183594 Z M 0.707031 6.601562 L 4.742188 4.710938 L 9.070312 11.207031 L 4.582031 13.25 C 4.582031 13.25 0.746094 6.644531 0.707031 6.601562 Z M 53.953125 6.152344 L 56.195312 4.308594 L 59.296875 7.554688 L 57.128906 9.71875 C 57.128906 9.71875 53.957031 6.152344 53.953125 6.152344 Z M 56.578125 4.027344 L 58.953125 2.214844 C 58.917969 2.265625 62.066406 5.230469 62.066406 5.230469 L 59.722656 7.191406 Z M 189.996094 3.488281 L 205.097656 3.488281 L 205.097656 7.023438 L 189.996094 7.023438 C 189.996094 7.023438 189.914062 3.902344 189.996094 3.488281 Z M 24.503906 15.949219 C 24.503906 15.949219 24.488281 11.5625 24.527344 11.5625 L 41.039062 11.5625 L 41.039062 15.792969 Z M 24.503906 15.949219 " clip-rule="nonzero"/></clipPath><linearGradient x1="388.555901" gradientTransform="matrix(0.448725, 0, 0, 0.448725, -57.573519, -99.277587)" y1="284.492977" x2="387.325034" gradientUnits="userSpaceOnUse" y2="219.305172" id="fe0a841b3e"><stop stop-opacity="1" stop-color="rgb(0%, 29.019165%, 67.83905%)" offset="0"/><stop stop-opacity="1" stop-color="rgb(0%, 29.019165%, 67.83905%)" offset="0.125"/><stop stop-opacity="1" stop-color="rgb(0%, 29.019165%, 67.83905%)" offset="0.165567"/><stop stop-opacity="1" stop-color="rgb(0%, 29.019165%, 67.83905%)" offset="0.1875"/><stop stop-opacity="1" stop-color="rgb(0.0762939%, 29.145813%, 67.886353%)" offset="0.195312"/><stop stop-opacity="1" stop-color="rgb(0.318909%, 29.544067%, 68.037415%)" offset="0.199219"/><stop stop-opacity="1" stop-color="rgb(0.485229%, 29.815674%, 68.139648%)" offset="0.203125"/><stop stop-opacity="1" stop-color="rgb(0.650024%, 30.08728%, 68.241882%)" offset="0.207031"/><stop stop-opacity="1" stop-color="rgb(0.814819%, 30.358887%, 68.345642%)" offset="0.210937"/><stop stop-opacity="1" stop-color="rgb(0.979614%, 30.628967%, 68.447876%)" offset="0.214844"/><stop stop-opacity="1" stop-color="rgb(1.145935%, 30.900574%, 68.55011%)" offset="0.21875"/><stop stop-opacity="1" stop-color="rgb(1.31073%, 31.17218%, 68.652344%)" offset="0.222656"/><stop stop-opacity="1" stop-color="rgb(1.475525%, 31.443787%, 68.754578%)" offset="0.226562"/><stop stop-opacity="1" stop-color="rgb(1.64032%, 31.713867%, 68.856812%)" offset="0.230469"/><stop stop-opacity="1" stop-color="rgb(1.806641%, 31.985474%, 68.959045%)" offset="0.234375"/><stop stop-opacity="1" stop-color="rgb(1.971436%, 32.255554%, 69.061279%)" offset="0.238281"/><stop stop-opacity="1" stop-color="rgb(2.13623%, 32.527161%, 69.163513%)" offset="0.242188"/><stop stop-opacity="1" stop-color="rgb(2.301025%, 32.798767%, 69.265747%)" offset="0.246094"/><stop stop-opacity="1" stop-color="rgb(2.467346%, 33.070374%, 69.369507%)" offset="0.25"/><stop stop-opacity="1" stop-color="rgb(2.632141%, 33.340454%, 69.471741%)" offset="0.253906"/><stop stop-opacity="1" stop-color="rgb(2.796936%, 33.612061%, 69.573975%)" offset="0.257812"/><stop stop-opacity="1" stop-color="rgb(2.961731%, 33.883667%, 69.676208%)" offset="0.261719"/><stop stop-opacity="1" stop-color="rgb(3.128052%, 34.155273%, 69.778442%)" offset="0.265625"/><stop stop-opacity="1" stop-color="rgb(3.292847%, 34.425354%, 69.880676%)" offset="0.269531"/><stop stop-opacity="1" stop-color="rgb(3.459167%, 34.69696%, 69.98291%)" offset="0.273438"/><stop stop-opacity="1" stop-color="rgb(3.623962%, 34.968567%, 70.085144%)" offset="0.277344"/><stop stop-opacity="1" stop-color="rgb(3.788757%, 35.240173%, 70.187378%)" offset="0.28125"/><stop stop-opacity="1" stop-color="rgb(3.953552%, 35.510254%, 70.289612%)" offset="0.285156"/><stop stop-opacity="1" stop-color="rgb(4.119873%, 35.78186%, 70.393372%)" offset="0.289062"/><stop stop-opacity="1" stop-color="rgb(4.284668%, 36.051941%, 70.495605%)" offset="0.292969"/><stop stop-opacity="1" stop-color="rgb(4.449463%, 36.323547%, 70.597839%)" offset="0.296875"/><stop stop-opacity="1" stop-color="rgb(4.614258%, 36.595154%, 70.700073%)" offset="0.300781"/><stop stop-opacity="1" stop-color="rgb(4.780579%, 36.86676%, 70.802307%)" offset="0.304687"/><stop stop-opacity="1" stop-color="rgb(4.945374%, 37.136841%, 70.904541%)" offset="0.308594"/><stop stop-opacity="1" stop-color="rgb(5.110168%, 37.408447%, 71.006775%)" offset="0.3125"/><stop stop-opacity="1" stop-color="rgb(5.274963%, 37.680054%, 71.109009%)" offset="0.316406"/><stop stop-opacity="1" stop-color="rgb(5.441284%, 37.95166%, 71.211243%)" offset="0.320312"/><stop stop-opacity="1" stop-color="rgb(5.606079%, 38.221741%, 71.313477%)" offset="0.324219"/><stop stop-opacity="1" stop-color="rgb(5.770874%, 38.493347%, 71.417236%)" offset="0.328125"/><stop stop-opacity="1" stop-color="rgb(5.935669%, 38.764954%, 71.51947%)" offset="0.332031"/><stop stop-opacity="1" stop-color="rgb(6.10199%, 39.03656%, 71.621704%)" offset="0.335937"/><stop stop-opacity="1" stop-color="rgb(6.266785%, 39.306641%, 71.723938%)" offset="0.339844"/><stop stop-opacity="1" stop-color="rgb(6.433105%, 39.578247%, 71.826172%)" offset="0.34375"/><stop stop-opacity="1" stop-color="rgb(6.5979%, 39.848328%, 71.928406%)" offset="0.347656"/><stop stop-opacity="1" stop-color="rgb(6.762695%, 40.119934%, 72.03064%)" offset="0.351562"/><stop stop-opacity="1" stop-color="rgb(6.92749%, 40.391541%, 72.132874%)" offset="0.355469"/><stop stop-opacity="1" stop-color="rgb(7.093811%, 40.663147%, 72.235107%)" offset="0.359375"/><stop stop-opacity="1" stop-color="rgb(7.258606%, 40.933228%, 72.337341%)" offset="0.363281"/><stop stop-opacity="1" stop-color="rgb(7.423401%, 41.204834%, 72.441101%)" offset="0.367187"/><stop stop-opacity="1" stop-color="rgb(7.588196%, 41.47644%, 72.543335%)" offset="0.371094"/><stop stop-opacity="1" stop-color="rgb(7.754517%, 41.748047%, 72.645569%)" offset="0.375"/><stop stop-opacity="1" stop-color="rgb(7.919312%, 42.018127%, 72.747803%)" offset="0.378906"/><stop stop-opacity="1" stop-color="rgb(8.084106%, 42.289734%, 72.850037%)" offset="0.382812"/><stop stop-opacity="1" stop-color="rgb(8.248901%, 42.56134%, 72.952271%)" offset="0.386719"/><stop stop-opacity="1" stop-color="rgb(8.415222%, 42.832947%, 73.054504%)" offset="0.390625"/><stop stop-opacity="1" stop-color="rgb(8.580017%, 43.103027%, 73.156738%)" offset="0.394531"/><stop stop-opacity="1" stop-color="rgb(8.744812%, 43.374634%, 73.258972%)" offset="0.398437"/><stop stop-opacity="1" stop-color="rgb(8.909607%, 43.644714%, 73.361206%)" offset="0.402344"/><stop stop-opacity="1" stop-color="rgb(9.075928%, 43.916321%, 73.464966%)" offset="0.40625"/><stop stop-opacity="1" stop-color="rgb(9.240723%, 44.187927%, 73.5672%)" offset="0.410156"/><stop stop-opacity="1" stop-color="rgb(9.405518%, 44.459534%, 73.669434%)" offset="0.414062"/><stop stop-opacity="1" stop-color="rgb(9.570312%, 44.729614%, 73.771667%)" offset="0.417969"/><stop stop-opacity="1" stop-color="rgb(9.736633%, 45.001221%, 73.873901%)" offset="0.421875"/><stop stop-opacity="1" stop-color="rgb(9.901428%, 45.272827%, 73.976135%)" offset="0.425781"/><stop stop-opacity="1" stop-color="rgb(10.067749%, 45.544434%, 74.078369%)" offset="0.429688"/><stop stop-opacity="1" stop-color="rgb(10.232544%, 45.814514%, 74.180603%)" offset="0.433594"/><stop stop-opacity="1" stop-color="rgb(10.397339%, 46.086121%, 74.282837%)" offset="0.4375"/><stop stop-opacity="1" stop-color="rgb(10.562134%, 46.357727%, 74.385071%)" offset="0.441406"/><stop stop-opacity="1" stop-color="rgb(10.728455%, 46.629333%, 74.488831%)" offset="0.445312"/><stop stop-opacity="1" stop-color="rgb(10.89325%, 46.899414%, 74.591064%)" offset="0.449219"/><stop stop-opacity="1" stop-color="rgb(11.058044%, 47.171021%, 74.693298%)" offset="0.453125"/><stop stop-opacity="1" stop-color="rgb(11.222839%, 47.441101%, 74.795532%)" offset="0.457031"/><stop stop-opacity="1" stop-color="rgb(11.38916%, 47.712708%, 74.897766%)" offset="0.460938"/><stop stop-opacity="1" stop-color="rgb(11.553955%, 47.984314%, 75%)" offset="0.464844"/><stop stop-opacity="1" stop-color="rgb(11.71875%, 48.25592%, 75.102234%)" offset="0.46875"/><stop stop-opacity="1" stop-color="rgb(11.883545%, 48.526001%, 75.204468%)" offset="0.472656"/><stop stop-opacity="1" stop-color="rgb(12.049866%, 48.797607%, 75.306702%)" offset="0.476562"/><stop stop-opacity="1" stop-color="rgb(12.214661%, 49.069214%, 75.408936%)" offset="0.480469"/><stop stop-opacity="1" stop-color="rgb(12.379456%, 49.34082%, 75.512695%)" offset="0.484375"/><stop stop-opacity="1" stop-color="rgb(12.54425%, 49.610901%, 75.614929%)" offset="0.488281"/><stop stop-opacity="1" stop-color="rgb(12.710571%, 49.882507%, 75.717163%)" offset="0.492188"/><stop stop-opacity="1" stop-color="rgb(12.875366%, 50.154114%, 75.819397%)" offset="0.496094"/><stop stop-opacity="1" stop-color="rgb(13.040161%, 50.42572%, 75.921631%)" offset="0.5"/><stop stop-opacity="1" stop-color="rgb(13.204956%, 50.695801%, 76.023865%)" offset="0.503906"/><stop stop-opacity="1" stop-color="rgb(13.371277%, 50.967407%, 76.126099%)" offset="0.507812"/><stop stop-opacity="1" stop-color="rgb(13.536072%, 51.237488%, 76.228333%)" offset="0.511719"/><stop stop-opacity="1" stop-color="rgb(13.702393%, 51.509094%, 76.330566%)" offset="0.515625"/><stop stop-opacity="1" stop-color="rgb(13.867188%, 51.780701%, 76.4328%)" offset="0.519531"/><stop stop-opacity="1" stop-color="rgb(14.031982%, 52.052307%, 76.53656%)" offset="0.523438"/><stop stop-opacity="1" stop-color="rgb(14.196777%, 52.322388%, 76.638794%)" offset="0.527344"/><stop stop-opacity="1" stop-color="rgb(14.363098%, 52.593994%, 76.741028%)" offset="0.53125"/><stop stop-opacity="1" stop-color="rgb(14.527893%, 52.865601%, 76.843262%)" offset="0.535156"/><stop stop-opacity="1" stop-color="rgb(14.692688%, 53.137207%, 76.945496%)" offset="0.539062"/><stop stop-opacity="1" stop-color="rgb(14.857483%, 53.407288%, 77.047729%)" offset="0.542969"/><stop stop-opacity="1" stop-color="rgb(15.023804%, 53.678894%, 77.149963%)" offset="0.546875"/><stop stop-opacity="1" stop-color="rgb(15.188599%, 53.9505%, 77.252197%)" offset="0.550781"/><stop stop-opacity="1" stop-color="rgb(15.353394%, 54.222107%, 77.354431%)" offset="0.554688"/><stop stop-opacity="1" stop-color="rgb(15.518188%, 54.492188%, 77.456665%)" offset="0.558594"/><stop stop-opacity="1" stop-color="rgb(15.684509%, 54.763794%, 77.560425%)" offset="0.5625"/><stop stop-opacity="1" stop-color="rgb(15.849304%, 55.033875%, 77.662659%)" offset="0.566406"/><stop stop-opacity="1" stop-color="rgb(16.014099%, 55.305481%, 77.764893%)" offset="0.570312"/><stop stop-opacity="1" stop-color="rgb(16.178894%, 55.577087%, 77.867126%)" offset="0.574219"/><stop stop-opacity="1" stop-color="rgb(16.345215%, 55.848694%, 77.96936%)" offset="0.578125"/><stop stop-opacity="1" stop-color="rgb(16.51001%, 56.118774%, 78.071594%)" offset="0.582031"/><stop stop-opacity="1" stop-color="rgb(16.674805%, 56.390381%, 78.173828%)" offset="0.585938"/><stop stop-opacity="1" stop-color="rgb(16.8396%, 56.661987%, 78.276062%)" offset="0.589844"/><stop stop-opacity="1" stop-color="rgb(17.00592%, 56.933594%, 78.378296%)" offset="0.59375"/><stop stop-opacity="1" stop-color="rgb(17.170715%, 57.203674%, 78.48053%)" offset="0.597656"/><stop stop-opacity="1" stop-color="rgb(17.337036%, 57.475281%, 78.58429%)" offset="0.601562"/><stop stop-opacity="1" stop-color="rgb(17.501831%, 57.746887%, 78.686523%)" offset="0.605469"/><stop stop-opacity="1" stop-color="rgb(17.666626%, 58.018494%, 78.788757%)" offset="0.609375"/><stop stop-opacity="1" stop-color="rgb(17.831421%, 58.288574%, 78.890991%)" offset="0.613281"/><stop stop-opacity="1" stop-color="rgb(17.997742%, 58.560181%, 78.993225%)" offset="0.617188"/><stop stop-opacity="1" stop-color="rgb(18.162537%, 58.830261%, 79.095459%)" offset="0.621094"/><stop stop-opacity="1" stop-color="rgb(18.327332%, 59.101868%, 79.197693%)" offset="0.625"/><stop stop-opacity="1" stop-color="rgb(18.492126%, 59.373474%, 79.299927%)" offset="0.628906"/><stop stop-opacity="1" stop-color="rgb(18.658447%, 59.645081%, 79.402161%)" offset="0.632812"/><stop stop-opacity="1" stop-color="rgb(18.823242%, 59.915161%, 79.504395%)" offset="0.636719"/><stop stop-opacity="1" stop-color="rgb(18.988037%, 60.186768%, 79.608154%)" offset="0.640625"/><stop stop-opacity="1" stop-color="rgb(19.152832%, 60.458374%, 79.710388%)" offset="0.644531"/><stop stop-opacity="1" stop-color="rgb(19.319153%, 60.72998%, 79.812622%)" offset="0.648438"/><stop stop-opacity="1" stop-color="rgb(19.483948%, 61.000061%, 79.914856%)" offset="0.652344"/><stop stop-opacity="1" stop-color="rgb(19.648743%, 61.271667%, 80.01709%)" offset="0.65625"/><stop stop-opacity="1" stop-color="rgb(19.813538%, 61.543274%, 80.119324%)" offset="0.660156"/><stop stop-opacity="1" stop-color="rgb(19.979858%, 61.81488%, 80.221558%)" offset="0.664062"/><stop stop-opacity="1" stop-color="rgb(20.144653%, 62.084961%, 80.323792%)" offset="0.667969"/><stop stop-opacity="1" stop-color="rgb(20.309448%, 62.356567%, 80.426025%)" offset="0.671875"/><stop stop-opacity="1" stop-color="rgb(20.474243%, 62.626648%, 80.528259%)" offset="0.675781"/><stop stop-opacity="1" stop-color="rgb(20.640564%, 62.898254%, 80.632019%)" offset="0.679688"/><stop stop-opacity="1" stop-color="rgb(20.805359%, 63.169861%, 80.734253%)" offset="0.683594"/><stop stop-opacity="1" stop-color="rgb(20.97168%, 63.441467%, 80.836487%)" offset="0.6875"/><stop stop-opacity="1" stop-color="rgb(21.136475%, 63.711548%, 80.938721%)" offset="0.691406"/><stop stop-opacity="1" stop-color="rgb(21.30127%, 63.983154%, 81.040955%)" offset="0.695312"/><stop stop-opacity="1" stop-color="rgb(21.466064%, 64.254761%, 81.143188%)" offset="0.699219"/><stop stop-opacity="1" stop-color="rgb(21.632385%, 64.526367%, 81.245422%)" offset="0.703125"/><stop stop-opacity="1" stop-color="rgb(21.79718%, 64.796448%, 81.347656%)" offset="0.707031"/><stop stop-opacity="1" stop-color="rgb(21.961975%, 65.068054%, 81.44989%)" offset="0.710938"/><stop stop-opacity="1" stop-color="rgb(22.12677%, 65.339661%, 81.552124%)" offset="0.714844"/><stop stop-opacity="1" stop-color="rgb(22.293091%, 65.611267%, 81.655884%)" offset="0.71875"/><stop stop-opacity="1" stop-color="rgb(22.457886%, 65.881348%, 81.758118%)" offset="0.722656"/><stop stop-opacity="1" stop-color="rgb(22.622681%, 66.152954%, 81.860352%)" offset="0.726562"/><stop stop-opacity="1" stop-color="rgb(22.787476%, 66.423035%, 81.962585%)" offset="0.730469"/><stop stop-opacity="1" stop-color="rgb(22.953796%, 66.694641%, 82.064819%)" offset="0.734375"/><stop stop-opacity="1" stop-color="rgb(23.118591%, 66.966248%, 82.167053%)" offset="0.738281"/><stop stop-opacity="1" stop-color="rgb(23.283386%, 67.237854%, 82.269287%)" offset="0.742188"/><stop stop-opacity="1" stop-color="rgb(23.448181%, 67.507935%, 82.371521%)" offset="0.746094"/><stop stop-opacity="1" stop-color="rgb(23.614502%, 67.779541%, 82.473755%)" offset="0.75"/><stop stop-opacity="1" stop-color="rgb(23.779297%, 68.051147%, 82.575989%)" offset="0.753906"/><stop stop-opacity="1" stop-color="rgb(23.944092%, 68.322754%, 82.679749%)" offset="0.757812"/><stop stop-opacity="1" stop-color="rgb(24.108887%, 68.592834%, 82.781982%)" offset="0.761719"/><stop stop-opacity="1" stop-color="rgb(24.275208%, 68.864441%, 82.884216%)" offset="0.765625"/><stop stop-opacity="1" stop-color="rgb(24.440002%, 69.136047%, 82.98645%)" offset="0.769531"/><stop stop-opacity="1" stop-color="rgb(24.606323%, 69.407654%, 83.088684%)" offset="0.773438"/><stop stop-opacity="1" stop-color="rgb(24.771118%, 69.677734%, 83.190918%)" offset="0.777344"/><stop stop-opacity="1" stop-color="rgb(24.935913%, 69.949341%, 83.293152%)" offset="0.78125"/><stop stop-opacity="1" stop-color="rgb(25.100708%, 70.219421%, 83.395386%)" offset="0.785156"/><stop stop-opacity="1" stop-color="rgb(25.267029%, 70.491028%, 83.49762%)" offset="0.789062"/><stop stop-opacity="1" stop-color="rgb(25.431824%, 70.762634%, 83.599854%)" offset="0.792969"/><stop stop-opacity="1" stop-color="rgb(25.596619%, 71.034241%, 83.703613%)" offset="0.796875"/><stop stop-opacity="1" stop-color="rgb(25.761414%, 71.304321%, 83.805847%)" offset="0.800781"/><stop stop-opacity="1" stop-color="rgb(25.927734%, 71.575928%, 83.908081%)" offset="0.804688"/><stop stop-opacity="1" stop-color="rgb(26.092529%, 71.847534%, 84.010315%)" offset="0.808594"/><stop stop-opacity="1" stop-color="rgb(26.257324%, 72.119141%, 84.112549%)" offset="0.8125"/><stop stop-opacity="1" stop-color="rgb(26.422119%, 72.389221%, 84.214783%)" offset="0.816406"/><stop stop-opacity="1" stop-color="rgb(26.58844%, 72.660828%, 84.317017%)" offset="0.820312"/><stop stop-opacity="1" stop-color="rgb(26.753235%, 72.932434%, 84.41925%)" offset="0.824219"/><stop stop-opacity="1" stop-color="rgb(26.91803%, 73.204041%, 84.521484%)" offset="0.828125"/><stop stop-opacity="1" stop-color="rgb(27.082825%, 73.474121%, 84.623718%)" offset="0.832031"/><stop stop-opacity="1" stop-color="rgb(27.249146%, 73.745728%, 84.727478%)" offset="0.835938"/><stop stop-opacity="1" stop-color="rgb(27.41394%, 74.015808%, 84.829712%)" offset="0.839844"/><stop stop-opacity="1" stop-color="rgb(27.578735%, 74.287415%, 84.931946%)" offset="0.84375"/><stop stop-opacity="1" stop-color="rgb(27.74353%, 74.559021%, 85.03418%)" offset="0.847656"/><stop stop-opacity="1" stop-color="rgb(27.909851%, 74.830627%, 85.136414%)" offset="0.851562"/><stop stop-opacity="1" stop-color="rgb(28.074646%, 75.100708%, 85.238647%)" offset="0.855469"/><stop stop-opacity="1" stop-color="rgb(28.240967%, 75.372314%, 85.340881%)" offset="0.859375"/><stop stop-opacity="1" stop-color="rgb(28.405762%, 75.643921%, 85.443115%)" offset="0.863281"/><stop stop-opacity="1" stop-color="rgb(28.570557%, 75.915527%, 85.545349%)" offset="0.867188"/><stop stop-opacity="1" stop-color="rgb(28.735352%, 76.185608%, 85.647583%)" offset="0.871094"/><stop stop-opacity="1" stop-color="rgb(28.901672%, 76.457214%, 85.751343%)" offset="0.875"/><stop stop-opacity="1" stop-color="rgb(29.066467%, 76.728821%, 85.853577%)" offset="0.878906"/><stop stop-opacity="1" stop-color="rgb(29.231262%, 77.000427%, 85.955811%)" offset="0.882812"/><stop stop-opacity="1" stop-color="rgb(29.396057%, 77.270508%, 86.058044%)" offset="0.886719"/><stop stop-opacity="1" stop-color="rgb(29.562378%, 77.542114%, 86.160278%)" offset="0.890625"/><stop stop-opacity="1" stop-color="rgb(29.727173%, 77.812195%, 86.262512%)" offset="0.894531"/><stop stop-opacity="1" stop-color="rgb(29.891968%, 78.083801%, 86.364746%)" offset="0.898438"/><stop stop-opacity="1" stop-color="rgb(30.056763%, 78.355408%, 86.46698%)" offset="0.902344"/><stop stop-opacity="1" stop-color="rgb(30.223083%, 78.627014%, 86.569214%)" offset="0.90625"/><stop stop-opacity="1" stop-color="rgb(30.387878%, 78.897095%, 86.671448%)" offset="0.910156"/><stop stop-opacity="1" stop-color="rgb(30.552673%, 79.168701%, 86.775208%)" offset="0.914062"/><stop stop-opacity="1" stop-color="rgb(30.717468%, 79.440308%, 86.877441%)" offset="0.917969"/><stop stop-opacity="1" stop-color="rgb(30.883789%, 79.711914%, 86.979675%)" offset="0.921875"/><stop stop-opacity="1" stop-color="rgb(31.048584%, 79.981995%, 87.081909%)" offset="0.925781"/><stop stop-opacity="1" stop-color="rgb(31.213379%, 80.253601%, 87.184143%)" offset="0.929688"/><stop stop-opacity="1" stop-color="rgb(31.378174%, 80.525208%, 87.286377%)" offset="0.933594"/><stop stop-opacity="1" stop-color="rgb(31.544495%, 80.796814%, 87.388611%)" offset="0.9375"/><stop stop-opacity="1" stop-color="rgb(31.70929%, 81.066895%, 87.490845%)" offset="0.941406"/><stop stop-opacity="1" stop-color="rgb(31.87561%, 81.338501%, 87.593079%)" offset="0.945312"/><stop stop-opacity="1" stop-color="rgb(32.040405%, 81.608582%, 87.695312%)" offset="0.949219"/><stop stop-opacity="1" stop-color="rgb(32.2052%, 81.880188%, 87.799072%)" offset="0.953125"/><stop stop-opacity="1" stop-color="rgb(32.369995%, 82.151794%, 87.901306%)" offset="0.957031"/><stop stop-opacity="1" stop-color="rgb(32.536316%, 82.423401%, 88.00354%)" offset="0.960938"/><stop stop-opacity="1" stop-color="rgb(32.701111%, 82.693481%, 88.105774%)" offset="0.964844"/><stop stop-opacity="1" stop-color="rgb(32.865906%, 82.965088%, 88.208008%)" offset="0.96875"/><stop stop-opacity="1" stop-color="rgb(33.030701%, 83.236694%, 88.310242%)" offset="0.972656"/><stop stop-opacity="1" stop-color="rgb(33.197021%, 83.508301%, 88.412476%)" offset="0.976562"/><stop stop-opacity="1" stop-color="rgb(33.361816%, 83.778381%, 88.514709%)" offset="0.980469"/><stop stop-opacity="1" stop-color="rgb(33.526611%, 84.049988%, 88.616943%)" offset="0.984375"/><stop stop-opacity="1" stop-color="rgb(33.691406%, 84.321594%, 88.719177%)" offset="0.988281"/><stop stop-opacity="1" stop-color="rgb(33.857727%, 84.593201%, 88.822937%)" offset="0.992188"/><stop stop-opacity="1" stop-color="rgb(34.022522%, 84.863281%, 88.925171%)" offset="0.996094"/><stop stop-opacity="1" stop-color="rgb(34.187317%, 85.134888%, 89.027405%)" offset="1"/></linearGradient><clipPath id="60bc19d255"><rect x="0" width="259" y="0" height="27"/></clipPath><clipPath id="f92d1791e8"><path d="M 22 34 L 280 34 L 280 47.265625 L 22 47.265625 Z M 22 34 " clip-rule="nonzero"/></clipPath><clipPath id="dceb70a56e"><path d="M 21 34 L 279 34 L 279 47 L 21 47 Z M 21 34 " clip-rule="nonzero"/></clipPath><clipPath id="f518622ee1"><path d="M 262.875 35.542969 L 261.4375 35.542969 L 261.4375 44.070312 L 254.332031 35.542969 L 253.109375 35.542969 L 253.109375 46.375 L 255.125 46.265625 L 255.070312 39.046875 L 261.578125 46.375 L 262.875 46.375 Z M 192.800781 35.234375 C 189.148438 35.234375 187.082031 38.105469 187.082031 41.144531 C 187.082031 44.332031 189.371094 46.984375 192.722656 46.984375 C 196.21875 46.984375 198.566406 44.382812 198.566406 41.09375 C 198.566406 38.019531 196.359375 35.234375 192.800781 35.234375 Z M 192.863281 36.777344 C 195.652344 36.777344 197 39.179688 197 41.074219 C 197 42.066406 196.609375 43.308594 195.933594 44.097656 C 195.199219 44.953125 193.960938 45.457031 192.816406 45.457031 C 190.574219 45.457031 188.664062 43.746094 188.664062 41.144531 C 188.664062 39.230469 189.871094 36.777344 192.863281 36.777344 Z M 144.675781 35.613281 L 144.675781 46.414062 L 146.164062 46.414062 L 146.164062 41.710938 L 146.5625 41.710938 C 147.285156 41.710938 147.253906 41.710938 148.28125 43.070312 C 148.617188 43.53125 150.074219 45.890625 150.425781 46.414062 L 152.207031 46.414062 C 151.484375 45.367188 151.222656 45.003906 150.78125 44.257812 C 149.984375 42.929688 149.398438 41.929688 148.449219 41.28125 C 149.585938 40.824219 150.734375 39.871094 150.734375 38.621094 C 150.734375 37.527344 150.210938 36.453125 149.09375 35.960938 C 148.433594 35.660156 147.789062 35.613281 147.296875 35.613281 Z M 146.625 36.925781 C 147.527344 36.925781 148.019531 36.988281 148.402344 37.179688 C 148.894531 37.417969 149.199219 38.003906 149.199219 38.621094 C 149.199219 39.207031 148.910156 39.886719 148.203125 40.171875 C 147.789062 40.332031 146.976562 40.332031 146.746094 40.332031 L 146.164062 40.332031 L 146.164062 36.925781 Z M 27.941406 35.445312 C 27.15625 34.910156 26.25 34.617188 25.3125 34.617188 C 23.25 34.617188 21.941406 35.964844 21.941406 37.742188 C 21.941406 38.484375 22.160156 39.039062 22.511719 39.503906 C 23.015625 40.160156 23.535156 40.488281 25.34375 41.613281 C 25.882812 41.941406 26.855469 42.664062 26.855469 43.652344 C 26.855469 44.652344 25.929688 45.203125 25.078125 45.203125 C 23.351562 45.203125 22.328125 43.910156 21.992188 43.476562 L 21.992188 45.621094 C 22.882812 46.308594 23.953125 46.707031 25.078125 46.707031 C 27.105469 46.707031 28.394531 45.34375 28.394531 43.496094 C 28.394531 42.648438 28.128906 42.007812 27.777344 41.542969 C 27.339844 40.9375 26.785156 40.523438 26.300781 40.230469 C 24.121094 38.917969 23.449219 38.503906 23.449219 37.5 C 23.449219 36.757812 24.136719 36.136719 25.261719 36.136719 C 26.03125 36.136719 26.972656 36.394531 27.941406 37.363281 Z M 278.75 35.855469 L 272.917969 35.855469 L 272.917969 46.28125 L 278.882812 46.28125 L 278.882812 44.515625 L 274.394531 44.515625 L 274.394531 41.238281 L 278.597656 41.238281 L 278.597656 39.90625 L 274.394531 39.90625 L 274.394531 37.1875 L 278.75 37.1875 Z M 243.289062 35.558594 L 241.25 35.558594 L 241.25 46.539062 L 243.289062 46.539062 Z M 228.703125 35.609375 L 226.972656 35.609375 L 226.972656 46.566406 L 232.234375 46.566406 L 232.234375 44.539062 L 228.703125 44.539062 Z M 217.308594 35.648438 L 215.871094 35.648438 L 215.871094 44.179688 L 208.761719 35.648438 L 207.542969 35.648438 L 207.542969 46.484375 L 209.558594 46.375 L 209.503906 39.152344 L 216.007812 46.484375 L 217.308594 46.484375 Z M 166.398438 35.6875 L 159.640625 35.6875 L 159.640625 37.050781 L 162.414062 37.050781 L 162.414062 46.511719 L 163.847656 46.511719 L 163.847656 37.050781 L 166.398438 37.050781 Z M 131.191406 35.328125 L 130.152344 35.328125 L 125.746094 46.566406 L 127.25 46.566406 L 128.542969 43.273438 L 132.90625 43.273438 L 134.273438 46.566406 L 135.777344 46.566406 Z M 129.113281 41.832031 L 130.648438 37.785156 L 132.304688 41.832031 Z M 96.609375 35.515625 L 96.609375 46.257812 L 99.527344 46.257812 C 100.472656 46.257812 101.746094 46.257812 102.867188 45.457031 C 103.433594 45.046875 105.082031 43.613281 105.082031 40.886719 C 105.082031 39.046875 104.339844 37.53125 103.3125 36.617188 C 102.082031 35.515625 100.582031 35.515625 99.714844 35.515625 Z M 99.582031 36.886719 C 100.417969 36.886719 101.042969 36.886719 101.796875 37.28125 C 103.203125 38.003906 103.71875 39.5 103.71875 40.808594 C 103.71875 42.273438 103.109375 43.582031 102.175781 44.257812 C 101.394531 44.808594 100.3125 44.875 99.621094 44.875 L 97.917969 44.875 L 97.917969 36.886719 Z M 80.457031 35.613281 L 80.457031 46.414062 L 81.945312 46.414062 L 81.945312 41.710938 L 82.34375 41.710938 C 83.066406 41.710938 83.035156 41.710938 84.0625 43.070312 C 84.398438 43.53125 85.855469 45.890625 86.210938 46.414062 L 87.988281 46.414062 C 87.265625 45.367188 87.007812 45.003906 86.5625 44.257812 C 85.765625 42.929688 85.183594 41.929688 84.230469 41.28125 C 85.367188 40.824219 86.515625 39.871094 86.515625 38.621094 C 86.515625 37.527344 85.992188 36.453125 84.875 35.960938 C 84.214844 35.660156 83.570312 35.613281 83.082031 35.613281 Z M 82.40625 36.925781 C 83.308594 36.925781 83.800781 36.988281 84.183594 37.179688 C 84.675781 37.417969 84.980469 38.003906 84.980469 38.621094 C 84.980469 39.207031 84.691406 39.886719 83.984375 40.171875 C 83.570312 40.332031 82.757812 40.332031 82.527344 40.332031 L 81.945312 40.332031 L 81.945312 36.925781 Z M 65.554688 35.019531 C 61.902344 35.019531 59.835938 37.886719 59.835938 40.925781 C 59.835938 44.117188 62.121094 46.769531 65.476562 46.769531 C 68.96875 46.769531 71.320312 44.167969 71.320312 40.875 C 71.320312 37.804688 69.113281 35.019531 65.554688 35.019531 Z M 65.617188 36.5625 C 68.40625 36.5625 69.753906 38.960938 69.753906 40.859375 C 69.753906 41.851562 69.363281 43.09375 68.6875 43.882812 C 67.953125 44.738281 66.714844 45.242188 65.570312 45.242188 C 63.328125 45.242188 61.417969 43.527344 61.417969 40.925781 C 61.417969 39.011719 62.625 36.5625 65.617188 36.5625 Z M 51.179688 35.109375 L 49.832031 35.109375 L 47.242188 43.199219 L 44.597656 35.109375 L 43.304688 35.109375 L 40.675781 43.199219 L 38.058594 35.109375 L 36.695312 35.109375 L 40.523438 46.917969 L 40.8125 46.917969 L 43.945312 37.347656 L 47.046875 46.917969 L 47.339844 46.917969 Z M 51.179688 35.109375 " clip-rule="nonzero"/></clipPath><linearGradient x1="385.420129" gradientTransform="matrix(0.559473, 0, 0, 0.694379, -56.589233, -33.378505)" y1="117.428487" x2="385.250573" gradientUnits="userSpaceOnUse" y2="95.986289" id="aaf7f85dcd"><stop stop-opacity="1" stop-color="rgb(26.36261%, 76.629639%, 96.943665%)" offset="0"/><stop stop-opacity="1" stop-color="rgb(26.499939%, 76.792908%, 96.847534%)" offset="0.125"/><stop stop-opacity="1" stop-color="rgb(26.774597%, 77.120972%, 96.656799%)" offset="0.169358"/><stop stop-opacity="1" stop-color="rgb(26.911926%, 77.285767%, 96.562195%)" offset="0.25"/><stop stop-opacity="1" stop-color="rgb(27.047729%, 77.449036%, 96.466064%)" offset="0.375"/><stop stop-opacity="1" stop-color="rgb(27.322388%, 77.7771%, 96.27533%)" offset="0.5"/><stop stop-opacity="1" stop-color="rgb(27.597046%, 78.105164%, 96.084595%)" offset="0.625"/><stop stop-opacity="1" stop-color="rgb(27.871704%, 78.433228%, 95.895386%)" offset="0.75"/><stop stop-opacity="1" stop-color="rgb(28.146362%, 78.761292%, 95.704651%)" offset="0.830642"/><stop stop-opacity="1" stop-color="rgb(28.283691%, 78.926086%, 95.610046%)" offset="0.875"/><stop stop-opacity="1" stop-color="rgb(28.421021%, 79.089355%, 95.513916%)" offset="1"/></linearGradient></defs><g clip-path="url(#de1bcea834)"><g mask="url(#41a55dee54)"><g transform="matrix(1, 0, 0, 1, 21, 26)"><g clip-path="url(#60bc19d255)"><g clip-path="url(#f6874f32df)"><path fill="#ffffff" d="M 107.875 14.449219 L 107.875 2.429688 L 112.238281 2.414062 L 112.585938 9.453125 L 112.601562 9.957031 C 112.601562 9.957031 113.417969 9.347656 113.527344 9.351562 C 114.09375 9.371094 118.082031 12.148438 118.082031 12.148438 L 122.625 15.765625 L 119.757812 19.808594 L 116.40625 16.863281 C 116.40625 16.863281 112.269531 14.210938 112.171875 14.125 L 112.171875 26.464844 L 107.875 26.464844 Z M 86.984375 16.679688 C 86.984375 16.679688 86.96875 11.976562 87.011719 11.976562 L 103.570312 11.976562 L 103.570312 16.507812 Z M 133.339844 14.398438 C 133.339844 16.164062 131.96875 17.597656 130.28125 17.597656 C 128.59375 17.597656 127.226562 16.164062 127.226562 14.398438 C 127.226562 12.628906 128.59375 11.199219 130.28125 11.199219 C 131.96875 11.199219 133.339844 12.628906 133.339844 14.398438 Z M 46 14.449219 L 46 2.429688 L 50.359375 2.414062 L 50.707031 9.453125 L 50.726562 9.957031 C 50.726562 9.957031 51.542969 9.347656 51.652344 9.351562 C 52.21875 9.371094 56.203125 12.148438 56.203125 12.148438 L 60.746094 15.765625 L 57.882812 19.808594 L 54.527344 16.863281 C 54.527344 16.863281 50.394531 14.210938 50.292969 14.125 L 50.292969 26.464844 L 46 26.464844 Z M 67.28125 23.507812 C 68.214844 23.105469 67.292969 23.675781 69.46875 21.742188 C 71.648438 19.808594 73.238281 17.3125 73.613281 13.613281 L 74.078125 9.089844 L 77.898438 9.128906 C 77.898438 9.128906 77.714844 12.234375 77.667969 13.574219 C 77.523438 17.726562 76.21875 20.859375 73.214844 23.953125 C 71.765625 25.445312 70.695312 26.078125 70.695312 26.078125 C 70.714844 26.1875 67.28125 23.507812 67.28125 23.507812 Z M 79.492188 15.476562 L 78.035156 14.148438 L 79.796875 12.414062 C 80.46875 11.753906 81.265625 10.398438 81.730469 9.574219 L 82.574219 8.074219 L 65.617188 7.699219 L 65.425781 3.765625 L 75.410156 3.765625 C 84.765625 3.765625 85.191406 3.148438 86.351562 3.851562 L 89.105469 6.339844 L 87.445312 8.367188 C 86.699219 9.285156 83.871094 13.238281 82.632812 14.875 L 81.003906 16.625 Z M 148.878906 25.085938 C 148.804688 24.84375 148.570312 24.101562 148.359375 23.441406 C 148.148438 22.777344 147.972656 22.179688 147.972656 22.113281 C 147.972656 22.042969 148.835938 22.257812 150.378906 22.078125 L 151.410156 21.957031 L 152.335938 14.40625 L 149.242188 17.546875 C 147.542969 19.273438 145.0625 21.457031 143.730469 22.402344 L 141.3125 24.117188 L 139.898438 22.566406 C 139.121094 21.714844 138.664062 20.960938 138.878906 20.886719 C 140.230469 20.4375 144.136719 17.378906 146.855469 14.640625 L 150.039062 11.4375 L 139.960938 11.242188 L 139.960938 7.71875 L 151.269531 7.71875 L 151.269531 1.699219 L 155.285156 1.738281 C 155.285156 1.738281 155.265625 7.511719 155.253906 7.71875 L 161.019531 7.71875 L 160.804688 11.082031 L 156.226562 11.285156 L 156.226562 17.945312 C 156.226562 25.574219 155.996094 25.417969 154.246094 26.148438 C 152.730469 26.78125 149.683594 27 149.496094 26.378906 Z M 193.484375 25.410156 L 192.265625 23.832031 L 196.304688 21.855469 C 198.769531 20.648438 201.5 19.222656 203.285156 15.539062 C 203.753906 14.578125 204.289062 13.398438 204.289062 13.292969 C 204.289062 13.191406 201.007812 13.226562 195.601562 13.226562 L 187.886719 13.226562 L 187.894531 8.984375 L 196.933594 8.980469 C 207.203125 8.976562 206 8.816406 206.804688 9.460938 C 206.804688 9.460938 208.21875 11.1875 208.613281 11.769531 C 208.613281 11.769531 208.070312 12.949219 207.800781 13.761719 C 205.707031 20.097656 205.183594 20.929688 199.105469 25.496094 C 197.863281 26.429688 195.230469 27.15625 195.230469 27.15625 Z M 222.148438 18.921875 L 222.027344 13.714844 L 220.390625 14.691406 C 217.605469 16.359375 215.535156 17.738281 215.535156 17.738281 L 212.097656 13.800781 C 212.097656 13.800781 215.035156 12.910156 216.738281 11.839844 C 222.582031 8.160156 222.871094 8.308594 227.445312 3.503906 L 229.835938 0.992188 L 233.703125 4.429688 C 233.703125 4.429688 233.011719 5.601562 232.285156 6.257812 C 226.785156 11.234375 227.535156 10.609375 227.535156 10.609375 C 227.113281 13.851562 227.167969 15.210938 227.164062 18.054688 L 227.125 26.507812 L 222.105469 26.507812 Z M 234.828125 21.144531 L 237.191406 20.316406 C 243.367188 18.152344 245.183594 18.078125 249.5625 13.078125 C 252.195312 10.070312 254.367188 6.183594 254.335938 6.121094 C 254.335938 6.121094 255.402344 6.882812 256.8125 7.875 L 258.558594 9.40625 L 256.367188 12.933594 C 254.382812 16.121094 252.664062 19.625 243.542969 23.609375 C 241.5625 24.472656 238.089844 25.980469 238.089844 25.980469 C 236.300781 23.164062 237.683594 25.535156 234.828125 21.144531 Z M 234.535156 6.28125 L 237.792969 2.320312 C 239.460938 3.316406 245.128906 7.027344 245.128906 7.027344 C 245.128906 7.027344 241.816406 11.097656 241.6875 10.925781 C 241.742188 10.921875 234.535156 6.28125 234.535156 6.28125 Z M 161.964844 21.144531 L 164.328125 20.316406 C 170.5 18.152344 172.316406 18.078125 176.695312 13.078125 C 179.328125 10.070312 181.5 6.183594 181.472656 6.121094 C 181.472656 6.121094 182.535156 6.882812 183.945312 7.875 L 185.691406 9.40625 L 183.5 12.933594 C 181.519531 16.121094 179.796875 19.625 170.679688 23.609375 C 168.695312 24.472656 165.222656 25.980469 165.222656 25.980469 C 163.433594 23.164062 164.816406 25.535156 161.964844 21.144531 Z M 161.667969 6.28125 L 164.925781 2.320312 C 166.59375 3.316406 172.261719 7.027344 172.261719 7.027344 C 172.261719 7.027344 168.949219 11.097656 168.820312 10.925781 C 168.875 10.921875 161.667969 6.28125 161.667969 6.28125 Z M 5.800781 22.316406 C 11.042969 18.320312 15.039062 15.144531 17.238281 10.484375 C 18.34375 8.015625 18.019531 3.003906 18.019531 3.003906 L 23.597656 3.246094 C 23.597656 3.246094 23.25 14.605469 18.9375 19.003906 C 16.03125 21.964844 9.273438 26.570312 9.273438 26.570312 Z M 0.410156 6.621094 L 5.289062 4.632812 L 9.628906 11.59375 L 4.535156 13.984375 C 4.535156 13.984375 0.445312 6.664062 0.410156 6.621094 Z M 54.636719 6.179688 L 56.886719 4.207031 L 59.996094 7.683594 L 57.820312 10 C 57.820312 10 54.640625 6.179688 54.636719 6.179688 Z M 57.269531 3.90625 L 59.652344 1.960938 C 59.617188 2.015625 62.773438 5.195312 62.773438 5.195312 L 60.425781 7.292969 Z M 191.070312 3.324219 L 206.214844 3.324219 L 206.214844 7.113281 L 191.070312 7.113281 C 191.070312 7.113281 190.984375 3.769531 191.070312 3.324219 Z M 25.109375 16.679688 C 25.109375 16.679688 25.09375 11.976562 25.132812 11.976562 L 41.691406 11.976562 L 41.691406 16.507812 Z M 25.109375 16.679688 " fill-opacity="1" fill-rule="nonzero"/></g><g clip-path="url(#28c031f89e)"><g clip-path="url(#4570659767)"><path fill="url(#fe0a841b3e)" d="M 0.707031 1.3125 L 0.707031 25.726562 L 257.292969 25.726562 L 257.292969 1.3125 Z M 0.707031 1.3125 " fill-rule="nonzero"/></g></g></g></g></g></g><g clip-path="url(#f92d1791e8)"><path fill="#ffffff" d="M 263.414062 35.222656 L 261.980469 35.222656 L 261.980469 44.382812 L 254.871094 35.222656 L 253.652344 35.222656 L 253.652344 46.859375 L 255.667969 46.742188 L 255.613281 38.988281 L 262.117188 46.859375 L 263.414062 46.859375 Z M 193.34375 34.894531 C 189.691406 34.894531 187.621094 37.976562 187.621094 41.238281 C 187.621094 44.664062 189.910156 47.511719 193.261719 47.511719 C 196.757812 47.511719 199.109375 44.71875 199.109375 41.1875 C 199.109375 37.886719 196.898438 34.894531 193.34375 34.894531 Z M 193.40625 36.550781 C 196.195312 36.550781 197.542969 39.128906 197.542969 41.167969 C 197.542969 42.230469 197.148438 43.566406 196.476562 44.414062 C 195.738281 45.332031 194.5 45.871094 193.359375 45.871094 C 191.117188 45.871094 189.203125 44.035156 189.203125 41.238281 C 189.203125 39.183594 190.410156 36.550781 193.40625 36.550781 Z M 145.21875 35.300781 L 145.21875 46.898438 L 146.703125 46.898438 L 146.703125 41.847656 L 147.101562 41.847656 C 147.824219 41.847656 147.792969 41.847656 148.820312 43.308594 C 149.160156 43.804688 150.617188 46.335938 150.96875 46.898438 L 152.746094 46.898438 C 152.027344 45.777344 151.765625 45.386719 151.320312 44.585938 C 150.523438 43.15625 149.941406 42.085938 148.992188 41.386719 C 150.125 40.894531 151.273438 39.875 151.273438 38.53125 C 151.273438 37.359375 150.753906 36.203125 149.632812 35.675781 C 148.972656 35.351562 148.328125 35.300781 147.839844 35.300781 Z M 147.164062 36.710938 C 148.070312 36.710938 148.558594 36.78125 148.941406 36.984375 C 149.433594 37.238281 149.738281 37.867188 149.738281 38.53125 C 149.738281 39.160156 149.449219 39.890625 148.742188 40.199219 C 148.328125 40.367188 147.515625 40.367188 147.289062 40.367188 L 146.703125 40.367188 L 146.703125 36.710938 Z M 28.484375 35.121094 C 27.695312 34.546875 26.789062 34.230469 25.851562 34.230469 C 23.789062 34.230469 22.484375 35.679688 22.484375 37.589844 C 22.484375 38.386719 22.699219 38.980469 23.050781 39.480469 C 23.554688 40.1875 24.074219 40.539062 25.886719 41.742188 C 26.421875 42.097656 27.394531 42.875 27.394531 43.933594 C 27.394531 45.007812 26.472656 45.601562 25.617188 45.601562 C 23.890625 45.601562 22.867188 44.210938 22.53125 43.746094 L 22.53125 46.046875 C 23.421875 46.789062 24.496094 47.214844 25.617188 47.214844 C 27.644531 47.214844 28.9375 45.75 28.9375 43.765625 C 28.9375 42.855469 28.667969 42.171875 28.316406 41.667969 C 27.878906 41.019531 27.328125 40.574219 26.839844 40.261719 C 24.660156 38.851562 23.992188 38.40625 23.992188 37.328125 C 23.992188 36.53125 24.679688 35.863281 25.800781 35.863281 C 26.574219 35.863281 27.511719 36.140625 28.484375 37.179688 Z M 279.289062 35.5625 L 273.457031 35.5625 L 273.457031 46.757812 L 279.425781 46.757812 L 279.425781 44.859375 L 274.933594 44.859375 L 274.933594 41.339844 L 279.140625 41.339844 L 279.140625 39.910156 L 274.933594 39.910156 L 274.933594 36.988281 L 279.289062 36.988281 Z M 243.832031 35.242188 L 241.789062 35.242188 L 241.789062 47.035156 L 243.832031 47.035156 Z M 229.246094 35.296875 L 227.515625 35.296875 L 227.515625 47.0625 L 232.773438 47.0625 L 232.773438 44.890625 L 229.246094 44.890625 Z M 217.847656 35.339844 L 216.410156 35.339844 L 216.410156 44.5 L 209.304688 35.339844 L 208.082031 35.339844 L 208.082031 46.972656 L 210.097656 46.859375 L 210.042969 39.105469 L 216.550781 46.972656 L 217.847656 46.972656 Z M 166.9375 35.382812 L 160.183594 35.382812 L 160.183594 36.847656 L 162.957031 36.847656 L 162.957031 47.003906 L 164.386719 47.003906 L 164.386719 36.847656 L 166.9375 36.847656 Z M 131.730469 34.996094 L 130.691406 34.996094 L 126.285156 47.0625 L 127.789062 47.0625 L 129.082031 43.527344 L 133.445312 43.527344 L 134.816406 47.0625 L 136.320312 47.0625 Z M 129.65625 41.980469 L 131.191406 37.632812 L 132.84375 41.980469 Z M 97.148438 35.199219 L 97.148438 46.734375 L 100.066406 46.734375 C 101.015625 46.734375 102.285156 46.734375 103.40625 45.871094 C 103.972656 45.429688 105.625 43.890625 105.625 40.964844 C 105.625 38.984375 104.878906 37.363281 103.851562 36.382812 C 102.621094 35.195312 101.121094 35.195312 100.257812 35.195312 Z M 100.121094 36.667969 C 100.960938 36.667969 101.582031 36.667969 102.339844 37.09375 C 103.746094 37.871094 104.257812 39.476562 104.257812 40.882812 C 104.257812 42.453125 103.648438 43.859375 102.71875 44.585938 C 101.933594 45.175781 100.851562 45.246094 100.164062 45.246094 L 98.460938 45.246094 L 98.460938 36.667969 Z M 81 35.300781 L 81 46.898438 L 82.488281 46.898438 L 82.488281 41.847656 L 82.886719 41.847656 C 83.605469 41.847656 83.578125 41.847656 84.601562 43.308594 C 84.941406 43.804688 86.398438 46.335938 86.75 46.898438 L 88.527344 46.898438 C 87.808594 45.777344 87.546875 45.386719 87.101562 44.585938 C 86.304688 43.15625 85.722656 42.085938 84.773438 41.386719 C 85.90625 40.894531 87.054688 39.875 87.054688 38.53125 C 87.054688 37.359375 86.535156 36.203125 85.414062 35.675781 C 84.753906 35.351562 84.113281 35.300781 83.621094 35.300781 Z M 82.945312 36.710938 C 83.851562 36.710938 84.339844 36.78125 84.726562 36.984375 C 85.214844 37.238281 85.523438 37.867188 85.523438 38.53125 C 85.523438 39.160156 85.230469 39.890625 84.523438 40.199219 C 84.113281 40.367188 83.300781 40.367188 83.070312 40.367188 L 82.488281 40.367188 L 82.488281 36.710938 Z M 66.09375 34.660156 C 62.441406 34.660156 60.375 37.746094 60.375 41.007812 C 60.375 44.433594 62.664062 47.28125 66.015625 47.28125 C 69.511719 47.28125 71.863281 44.488281 71.863281 40.953125 C 71.863281 37.65625 69.652344 34.660156 66.09375 34.660156 Z M 66.15625 36.320312 C 68.945312 36.320312 70.292969 38.898438 70.292969 40.933594 C 70.292969 42 69.902344 43.332031 69.230469 44.179688 C 68.492188 45.101562 67.253906 45.640625 66.109375 45.640625 C 63.871094 45.640625 61.957031 43.800781 61.957031 41.007812 C 61.957031 38.953125 63.164062 36.320312 66.15625 36.320312 Z M 51.722656 34.761719 L 50.371094 34.761719 L 47.785156 43.449219 L 45.140625 34.761719 L 43.84375 34.761719 L 41.214844 43.449219 L 38.597656 34.761719 L 37.234375 34.761719 L 41.0625 47.441406 L 41.355469 47.441406 L 44.484375 37.164062 L 47.589844 47.441406 L 47.878906 47.441406 Z M 51.722656 34.761719 " fill-opacity="1" fill-rule="nonzero"/></g><g clip-path="url(#dceb70a56e)"><g clip-path="url(#f518622ee1)"><path fill="url(#aaf7f85dcd)" d="M 21.941406 34.617188 L 21.941406 46.984375 L 278.882812 46.984375 L 278.882812 34.617188 Z M 21.941406 34.617188 " fill-rule="nonzero"/></g></g><g fill="#004aad" fill-opacity="0.749"><g transform="translate(17.934792, 24.234274)"><g><path d="M 15.9375 -22.265625 C 18.519531 -22.265625 20.460938 -21.785156 21.765625 -20.828125 C 23.066406 -19.867188 23.71875 -18.476562 23.71875 -16.65625 C 23.71875 -15.664062 23.441406 -14.769531 22.890625 -13.96875 C 22.335938 -13.175781 21.535156 -12.566406 20.484375 -12.140625 C 21.265625 -11.890625 21.988281 -11.53125 22.65625 -11.0625 C 23.320312 -10.59375 23.859375 -9.988281 24.265625 -9.25 C 24.679688 -8.507812 24.890625 -7.609375 24.890625 -6.546875 C 24.890625 -5.253906 24.640625 -4.179688 24.140625 -3.328125 C 23.648438 -2.484375 23 -1.816406 22.1875 -1.328125 C 21.382812 -0.847656 20.492188 -0.503906 19.515625 -0.296875 C 18.546875 -0.0976562 17.570312 0 16.59375 0 L 4.828125 0 L 4.828125 -22.265625 Z M 15.90625 -18.953125 L 8.265625 -18.953125 L 8.265625 -13.15625 L 16.28125 -13.15625 C 17.320312 -13.1875 18.238281 -13.445312 19.03125 -13.9375 C 19.820312 -14.4375 20.21875 -15.15625 20.21875 -16.09375 C 20.21875 -17.125 19.796875 -17.859375 18.953125 -18.296875 C 18.117188 -18.734375 17.101562 -18.953125 15.90625 -18.953125 Z M 16.4375 -9.828125 L 8.265625 -9.828125 L 8.265625 -3.3125 L 16.59375 -3.3125 C 18 -3.3125 19.148438 -3.578125 20.046875 -4.109375 C 20.953125 -4.648438 21.40625 -5.484375 21.40625 -6.609375 C 21.40625 -7.441406 21.148438 -8.085938 20.640625 -8.546875 C 20.128906 -9.015625 19.488281 -9.34375 18.71875 -9.53125 C 17.957031 -9.726562 17.195312 -9.828125 16.4375 -9.828125 Z M 16.4375 -9.828125 "/></g></g></g><g fill="#004aad" fill-opacity="0.749"><g transform="translate(45.967676, 24.234274)"><g><path d="M 22.296875 0 L 19.90625 -5.34375 L 8.140625 -5.34375 L 5.71875 0 L 2.15625 0 L 12.203125 -22.265625 L 16.0625 -22.265625 L 26.046875 0 Z M 12.3125 -14.5 L 9.640625 -8.65625 L 18.40625 -8.65625 L 15.671875 -14.625 C 15.398438 -15.300781 15.125 -15.96875 14.84375 -16.625 C 14.570312 -17.28125 14.296875 -17.984375 14.015625 -18.734375 C 13.722656 -17.960938 13.4375 -17.234375 13.15625 -16.546875 C 12.882812 -15.859375 12.601562 -15.175781 12.3125 -14.5 Z M 12.3125 -14.5 "/></g></g></g><g fill="#004aad" fill-opacity="0.749"><g transform="translate(74.159481, 24.234274)"><g><path d="M 24.515625 -3.109375 C 23.960938 -2.609375 23.21875 -2.09375 22.28125 -1.5625 C 21.351562 -1.03125 20.28125 -0.582031 19.0625 -0.21875 C 17.84375 0.132812 16.554688 0.3125 15.203125 0.3125 C 13.503906 0.3125 11.921875 0.046875 10.453125 -0.484375 C 8.992188 -1.023438 7.71875 -1.796875 6.625 -2.796875 C 5.53125 -3.796875 4.675781 -5 4.0625 -6.40625 C 3.445312 -7.8125 3.140625 -9.382812 3.140625 -11.125 C 3.140625 -12.757812 3.460938 -14.265625 4.109375 -15.640625 C 4.765625 -17.015625 5.648438 -18.210938 6.765625 -19.234375 C 7.890625 -20.253906 9.179688 -21.046875 10.640625 -21.609375 C 12.109375 -22.171875 13.660156 -22.453125 15.296875 -22.453125 C 16.648438 -22.453125 17.9375 -22.265625 19.15625 -21.890625 C 20.375 -21.515625 21.460938 -21.039062 22.421875 -20.46875 C 23.390625 -19.90625 24.171875 -19.316406 24.765625 -18.703125 L 22.640625 -15.96875 C 21.617188 -16.851562 20.488281 -17.585938 19.25 -18.171875 C 18.007812 -18.753906 16.628906 -19.046875 15.109375 -19.046875 C 14.023438 -19.046875 12.976562 -18.863281 11.96875 -18.5 C 10.96875 -18.144531 10.066406 -17.625 9.265625 -16.9375 C 8.472656 -16.25 7.835938 -15.414062 7.359375 -14.4375 C 6.878906 -13.457031 6.640625 -12.351562 6.640625 -11.125 C 6.640625 -9.34375 7.054688 -7.851562 7.890625 -6.65625 C 8.734375 -5.457031 9.832031 -4.554688 11.1875 -3.953125 C 12.550781 -3.347656 14.015625 -3.046875 15.578125 -3.046875 C 16.679688 -3.046875 17.675781 -3.191406 18.5625 -3.484375 C 19.457031 -3.785156 20.253906 -4.160156 20.953125 -4.609375 C 21.648438 -5.054688 22.273438 -5.503906 22.828125 -5.953125 Z M 24.515625 -3.109375 "/></g></g></g><g fill="#004aad" fill-opacity="0.749"><g transform="translate(101.874534, 24.234274)"><g><path d="M 22.296875 0 L 19.90625 -5.34375 L 8.140625 -5.34375 L 5.71875 0 L 2.15625 0 L 12.203125 -22.265625 L 16.0625 -22.265625 L 26.046875 0 Z M 12.3125 -14.5 L 9.640625 -8.65625 L 18.40625 -8.65625 L 15.671875 -14.625 C 15.398438 -15.300781 15.125 -15.96875 14.84375 -16.625 C 14.570312 -17.28125 14.296875 -17.984375 14.015625 -18.734375 C 13.722656 -17.960938 13.4375 -17.234375 13.15625 -16.546875 C 12.882812 -15.859375 12.601562 -15.175781 12.3125 -14.5 Z M 12.3125 -14.5 "/></g></g></g><g fill="#004aad" fill-opacity="0.749"><g transform="translate(130.066339, 24.234274)"><g/></g></g><g fill="#004aad" fill-opacity="0.749"><g transform="translate(143.129277, 24.234274)"><g><path d="M 23.625 -22.265625 L 27.0625 -22.265625 L 27.0625 0 L 23.71875 0 L 7.6875 -17.328125 C 7.820312 -15.972656 7.953125 -14.625 8.078125 -13.28125 C 8.203125 -11.945312 8.265625 -10.601562 8.265625 -9.25 L 8.265625 0 L 4.828125 0 L 4.828125 -22.265625 L 8.109375 -22.265625 L 24.171875 -4.484375 C 24.015625 -5.546875 23.898438 -6.675781 23.828125 -7.875 C 23.753906 -9.070312 23.703125 -10.28125 23.671875 -11.5 C 23.640625 -12.71875 23.625 -13.863281 23.625 -14.9375 Z M 23.625 -22.265625 "/></g></g></g><g fill="#004aad" fill-opacity="0.749"><g transform="translate(175.007942, 24.234274)"><g><path d="M 28.234375 -11.125 C 28.234375 -9.519531 27.925781 -8.019531 27.3125 -6.625 C 26.695312 -5.238281 25.828125 -4.023438 24.703125 -2.984375 C 23.578125 -1.953125 22.25 -1.144531 20.71875 -0.5625 C 19.195312 0.0195312 17.515625 0.3125 15.671875 0.3125 C 13.847656 0.3125 12.164062 0.0195312 10.625 -0.5625 C 9.09375 -1.144531 7.769531 -1.953125 6.65625 -2.984375 C 5.539062 -4.023438 4.675781 -5.238281 4.0625 -6.625 C 3.445312 -8.019531 3.140625 -9.519531 3.140625 -11.125 C 3.140625 -12.738281 3.445312 -14.238281 4.0625 -15.625 C 4.675781 -17.007812 5.539062 -18.222656 6.65625 -19.265625 C 7.769531 -20.304688 9.09375 -21.117188 10.625 -21.703125 C 12.164062 -22.285156 13.847656 -22.578125 15.671875 -22.578125 C 17.515625 -22.578125 19.195312 -22.285156 20.71875 -21.703125 C 22.25 -21.117188 23.578125 -20.304688 24.703125 -19.265625 C 25.828125 -18.222656 26.695312 -17.007812 27.3125 -15.625 C 27.925781 -14.238281 28.234375 -12.738281 28.234375 -11.125 Z M 24.734375 -11.125 C 24.734375 -12.675781 24.347656 -14.0625 23.578125 -15.28125 C 22.804688 -16.5 21.734375 -17.460938 20.359375 -18.171875 C 18.992188 -18.878906 17.429688 -19.234375 15.671875 -19.234375 C 13.890625 -19.234375 12.320312 -18.878906 10.96875 -18.171875 C 9.613281 -17.460938 8.550781 -16.5 7.78125 -15.28125 C 7.019531 -14.0625 6.640625 -12.675781 6.640625 -11.125 C 6.640625 -9.582031 7.019531 -8.203125 7.78125 -6.984375 C 8.550781 -5.765625 9.613281 -4.796875 10.96875 -4.078125 C 12.320312 -3.367188 13.890625 -3.015625 15.671875 -3.015625 C 17.429688 -3.015625 18.992188 -3.367188 20.359375 -4.078125 C 21.734375 -4.796875 22.804688 -5.769531 23.578125 -7 C 24.347656 -8.226562 24.734375 -9.601562 24.734375 -11.125 Z M 24.734375 -11.125 "/></g></g></g><g fill="#004aad" fill-opacity="0.749"><g transform="translate(206.378068, 24.234274)"><g><path d="M 25.40625 -22.265625 L 15.765625 0 L 11.921875 0 L 2.15625 -22.265625 L 6.046875 -22.265625 L 11.765625 -8.90625 C 12.109375 -8.09375 12.476562 -7.226562 12.875 -6.3125 C 13.28125 -5.40625 13.648438 -4.519531 13.984375 -3.65625 C 14.304688 -4.519531 14.65625 -5.398438 15.03125 -6.296875 C 15.414062 -7.203125 15.769531 -8.0625 16.09375 -8.875 L 21.40625 -22.265625 Z M 25.40625 -22.265625 "/></g></g></g><g fill="#004aad" fill-opacity="0.749"><g transform="translate(233.934188, 24.234274)"><g><path d="M 4.828125 -22.265625 L 21.6875 -22.265625 L 21.6875 -18.953125 L 8.265625 -18.953125 L 8.265625 -13.0625 L 19.9375 -13.0625 L 19.9375 -9.765625 L 8.265625 -9.765625 L 8.265625 -3.3125 L 21.6875 -3.3125 L 21.6875 0 L 4.828125 0 Z M 4.828125 -22.265625 "/></g></g></g><g fill="#004aad" fill-opacity="0.749"><g transform="translate(259.742243, 24.234274)"><g><path d="M 21.53125 -3.3125 L 21.53125 0 L 4.828125 0 L 4.828125 -22.265625 L 8.265625 -22.265625 L 8.265625 -3.3125 Z M 21.53125 -3.3125 "/></g></g></g><g fill="#38b6ff" fill-opacity="1"><g transform="translate(16.529592, 22.829074)"><g><path d="M 15.9375 -22.265625 C 18.519531 -22.265625 20.460938 -21.785156 21.765625 -20.828125 C 23.066406 -19.867188 23.71875 -18.476562 23.71875 -16.65625 C 23.71875 -15.664062 23.441406 -14.769531 22.890625 -13.96875 C 22.335938 -13.175781 21.535156 -12.566406 20.484375 -12.140625 C 21.265625 -11.890625 21.988281 -11.53125 22.65625 -11.0625 C 23.320312 -10.59375 23.859375 -9.988281 24.265625 -9.25 C 24.679688 -8.507812 24.890625 -7.609375 24.890625 -6.546875 C 24.890625 -5.253906 24.640625 -4.179688 24.140625 -3.328125 C 23.648438 -2.484375 23 -1.816406 22.1875 -1.328125 C 21.382812 -0.847656 20.492188 -0.503906 19.515625 -0.296875 C 18.546875 -0.0976562 17.570312 0 16.59375 0 L 4.828125 0 L 4.828125 -22.265625 Z M 15.90625 -18.953125 L 8.265625 -18.953125 L 8.265625 -13.15625 L 16.28125 -13.15625 C 17.320312 -13.1875 18.238281 -13.445312 19.03125 -13.9375 C 19.820312 -14.4375 20.21875 -15.15625 20.21875 -16.09375 C 20.21875 -17.125 19.796875 -17.859375 18.953125 -18.296875 C 18.117188 -18.734375 17.101562 -18.953125 15.90625 -18.953125 Z M 16.4375 -9.828125 L 8.265625 -9.828125 L 8.265625 -3.3125 L 16.59375 -3.3125 C 18 -3.3125 19.148438 -3.578125 20.046875 -4.109375 C 20.953125 -4.648438 21.40625 -5.484375 21.40625 -6.609375 C 21.40625 -7.441406 21.148438 -8.085938 20.640625 -8.546875 C 20.128906 -9.015625 19.488281 -9.34375 18.71875 -9.53125 C 17.957031 -9.726562 17.195312 -9.828125 16.4375 -9.828125 Z M 16.4375 -9.828125 "/></g></g></g><g fill="#38b6ff" fill-opacity="1"><g transform="translate(44.562476, 22.829074)"><g><path d="M 22.296875 0 L 19.90625 -5.34375 L 8.140625 -5.34375 L 5.71875 0 L 2.15625 0 L 12.203125 -22.265625 L 16.0625 -22.265625 L 26.046875 0 Z M 12.3125 -14.5 L 9.640625 -8.65625 L 18.40625 -8.65625 L 15.671875 -14.625 C 15.398438 -15.300781 15.125 -15.96875 14.84375 -16.625 C 14.570312 -17.28125 14.296875 -17.984375 14.015625 -18.734375 C 13.722656 -17.960938 13.4375 -17.234375 13.15625 -16.546875 C 12.882812 -15.859375 12.601562 -15.175781 12.3125 -14.5 Z M 12.3125 -14.5 "/></g></g></g><g fill="#38b6ff" fill-opacity="1"><g transform="translate(72.754281, 22.829074)"><g><path d="M 24.515625 -3.109375 C 23.960938 -2.609375 23.21875 -2.09375 22.28125 -1.5625 C 21.351562 -1.03125 20.28125 -0.582031 19.0625 -0.21875 C 17.84375 0.132812 16.554688 0.3125 15.203125 0.3125 C 13.503906 0.3125 11.921875 0.046875 10.453125 -0.484375 C 8.992188 -1.023438 7.71875 -1.796875 6.625 -2.796875 C 5.53125 -3.796875 4.675781 -5 4.0625 -6.40625 C 3.445312 -7.8125 3.140625 -9.382812 3.140625 -11.125 C 3.140625 -12.757812 3.460938 -14.265625 4.109375 -15.640625 C 4.765625 -17.015625 5.648438 -18.210938 6.765625 -19.234375 C 7.890625 -20.253906 9.179688 -21.046875 10.640625 -21.609375 C 12.109375 -22.171875 13.660156 -22.453125 15.296875 -22.453125 C 16.648438 -22.453125 17.9375 -22.265625 19.15625 -21.890625 C 20.375 -21.515625 21.460938 -21.039062 22.421875 -20.46875 C 23.390625 -19.90625 24.171875 -19.316406 24.765625 -18.703125 L 22.640625 -15.96875 C 21.617188 -16.851562 20.488281 -17.585938 19.25 -18.171875 C 18.007812 -18.753906 16.628906 -19.046875 15.109375 -19.046875 C 14.023438 -19.046875 12.976562 -18.863281 11.96875 -18.5 C 10.96875 -18.144531 10.066406 -17.625 9.265625 -16.9375 C 8.472656 -16.25 7.835938 -15.414062 7.359375 -14.4375 C 6.878906 -13.457031 6.640625 -12.351562 6.640625 -11.125 C 6.640625 -9.34375 7.054688 -7.851562 7.890625 -6.65625 C 8.734375 -5.457031 9.832031 -4.554688 11.1875 -3.953125 C 12.550781 -3.347656 14.015625 -3.046875 15.578125 -3.046875 C 16.679688 -3.046875 17.675781 -3.191406 18.5625 -3.484375 C 19.457031 -3.785156 20.253906 -4.160156 20.953125 -4.609375 C 21.648438 -5.054688 22.273438 -5.503906 22.828125 -5.953125 Z M 24.515625 -3.109375 "/></g></g></g><g fill="#38b6ff" fill-opacity="1"><g transform="translate(100.469334, 22.829074)"><g><path d="M 22.296875 0 L 19.90625 -5.34375 L 8.140625 -5.34375 L 5.71875 0 L 2.15625 0 L 12.203125 -22.265625 L 16.0625 -22.265625 L 26.046875 0 Z M 12.3125 -14.5 L 9.640625 -8.65625 L 18.40625 -8.65625 L 15.671875 -14.625 C 15.398438 -15.300781 15.125 -15.96875 14.84375 -16.625 C 14.570312 -17.28125 14.296875 -17.984375 14.015625 -18.734375 C 13.722656 -17.960938 13.4375 -17.234375 13.15625 -16.546875 C 12.882812 -15.859375 12.601562 -15.175781 12.3125 -14.5 Z M 12.3125 -14.5 "/></g></g></g><g fill="#38b6ff" fill-opacity="1"><g transform="translate(128.661139, 22.829074)"><g/></g></g><g fill="#38b6ff" fill-opacity="1"><g transform="translate(141.724076, 22.829074)"><g><path d="M 23.625 -22.265625 L 27.0625 -22.265625 L 27.0625 0 L 23.71875 0 L 7.6875 -17.328125 C 7.820312 -15.972656 7.953125 -14.625 8.078125 -13.28125 C 8.203125 -11.945312 8.265625 -10.601562 8.265625 -9.25 L 8.265625 0 L 4.828125 0 L 4.828125 -22.265625 L 8.109375 -22.265625 L 24.171875 -4.484375 C 24.015625 -5.546875 23.898438 -6.675781 23.828125 -7.875 C 23.753906 -9.070312 23.703125 -10.28125 23.671875 -11.5 C 23.640625 -12.71875 23.625 -13.863281 23.625 -14.9375 Z M 23.625 -22.265625 "/></g></g></g><g fill="#38b6ff" fill-opacity="1"><g transform="translate(173.602741, 22.829074)"><g><path d="M 28.234375 -11.125 C 28.234375 -9.519531 27.925781 -8.019531 27.3125 -6.625 C 26.695312 -5.238281 25.828125 -4.023438 24.703125 -2.984375 C 23.578125 -1.953125 22.25 -1.144531 20.71875 -0.5625 C 19.195312 0.0195312 17.515625 0.3125 15.671875 0.3125 C 13.847656 0.3125 12.164062 0.0195312 10.625 -0.5625 C 9.09375 -1.144531 7.769531 -1.953125 6.65625 -2.984375 C 5.539062 -4.023438 4.675781 -5.238281 4.0625 -6.625 C 3.445312 -8.019531 3.140625 -9.519531 3.140625 -11.125 C 3.140625 -12.738281 3.445312 -14.238281 4.0625 -15.625 C 4.675781 -17.007812 5.539062 -18.222656 6.65625 -19.265625 C 7.769531 -20.304688 9.09375 -21.117188 10.625 -21.703125 C 12.164062 -22.285156 13.847656 -22.578125 15.671875 -22.578125 C 17.515625 -22.578125 19.195312 -22.285156 20.71875 -21.703125 C 22.25 -21.117188 23.578125 -20.304688 24.703125 -19.265625 C 25.828125 -18.222656 26.695312 -17.007812 27.3125 -15.625 C 27.925781 -14.238281 28.234375 -12.738281 28.234375 -11.125 Z M 24.734375 -11.125 C 24.734375 -12.675781 24.347656 -14.0625 23.578125 -15.28125 C 22.804688 -16.5 21.734375 -17.460938 20.359375 -18.171875 C 18.992188 -18.878906 17.429688 -19.234375 15.671875 -19.234375 C 13.890625 -19.234375 12.320312 -18.878906 10.96875 -18.171875 C 9.613281 -17.460938 8.550781 -16.5 7.78125 -15.28125 C 7.019531 -14.0625 6.640625 -12.675781 6.640625 -11.125 C 6.640625 -9.582031 7.019531 -8.203125 7.78125 -6.984375 C 8.550781 -5.765625 9.613281 -4.796875 10.96875 -4.078125 C 12.320312 -3.367188 13.890625 -3.015625 15.671875 -3.015625 C 17.429688 -3.015625 18.992188 -3.367188 20.359375 -4.078125 C 21.734375 -4.796875 22.804688 -5.769531 23.578125 -7 C 24.347656 -8.226562 24.734375 -9.601562 24.734375 -11.125 Z M 24.734375 -11.125 "/></g></g></g><g fill="#38b6ff" fill-opacity="1"><g transform="translate(204.972868, 22.829074)"><g><path d="M 25.40625 -22.265625 L 15.765625 0 L 11.921875 0 L 2.15625 -22.265625 L 6.046875 -22.265625 L 11.765625 -8.90625 C 12.109375 -8.09375 12.476562 -7.226562 12.875 -6.3125 C 13.28125 -5.40625 13.648438 -4.519531 13.984375 -3.65625 C 14.304688 -4.519531 14.65625 -5.398438 15.03125 -6.296875 C 15.414062 -7.203125 15.769531 -8.0625 16.09375 -8.875 L 21.40625 -22.265625 Z M 25.40625 -22.265625 "/></g></g></g><g fill="#38b6ff" fill-opacity="1"><g transform="translate(232.528988, 22.829074)"><g><path d="M 4.828125 -22.265625 L 21.6875 -22.265625 L 21.6875 -18.953125 L 8.265625 -18.953125 L 8.265625 -13.0625 L 19.9375 -13.0625 L 19.9375 -9.765625 L 8.265625 -9.765625 L 8.265625 -3.3125 L 21.6875 -3.3125 L 21.6875 0 L 4.828125 0 Z M 4.828125 -22.265625 "/></g></g></g><g fill="#38b6ff" fill-opacity="1"><g transform="translate(258.337043, 22.829074)"><g><path d="M 21.53125 -3.3125 L 21.53125 0 L 4.828125 0 L 4.828125 -22.265625 L 8.265625 -22.265625 L 8.265625 -3.3125 Z M 21.53125 -3.3125 "/></g></g></g></svg>